; NON-PLATED HOLES START AT T1
; THROUGH (PLATED) HOLES START AT T100
M48
INCH
T100C0.036000
T101C0.025000
T102C0.035000
T103C0.038000
%
T100
X017026Y008685
X017026Y003685
X011026Y006685
X017026Y009685
X017026Y014685
X011026Y008685
X017026Y010685
X011026Y003685
X011026Y017685
X011026Y009685
X011026Y010685
X017026Y016685
X017026Y004685
X011026Y012685
X011026Y015685
X017026Y017685
X017026Y015685
X011026Y013685
X017026Y011685
X017026Y012685
X017026Y005685
X017026Y006685
X011026Y007685
X011026Y011685
X011026Y014685
X011026Y016685
X011026Y004685
X017026Y007685
X017026Y013685
X011026Y005685
T101
X018626Y033659
X011026Y026285
X011026Y025497
X011026Y027071
X016826Y026285
X014026Y037459
X009026Y031297
X014026Y035885
X018626Y032085
X018626Y031297
X018626Y032871
X014026Y036671
X016826Y027859
X011026Y027859
X009026Y032085
X009026Y032871
X014026Y035097
X016826Y025497
X016826Y027071
X009026Y033659
T102
X009226Y010685
X006226Y003685
X009226Y004685
X006226Y007685
X006226Y013685
X009226Y009685
X006226Y011685
X019026Y008685
X019026Y009685
X009226Y007685
X009226Y012685
X019026Y007685
X006226Y006685
X009226Y003685
X022026Y007685
X009226Y011685
X022026Y010685
X006226Y010685
X019026Y010685
X022026Y008685
X006226Y005685
X009226Y006685
X009226Y013685
X006226Y004685
X009226Y008685
X009226Y005685
X006226Y008685
X006226Y012685
X022026Y009685
X006226Y009685
T103
X019026Y013685
X009226Y014685
X019026Y012685
X019026Y011685
X009226Y016685
X019026Y015685
X019026Y004685
X019026Y005685
X019626Y017685
X019026Y003685
X009226Y017685
X009226Y015685
X020626Y017685
X019026Y006685
X019026Y014685
T00
M30
