G04 MADE WITH FRITZING*
G04 WWW.FRITZING.ORG*
G04 DOUBLE SIDED*
G04 HOLES PLATED*
G04 CONTOUR ON CENTER OF CONTOUR VECTOR*
%ASAXBY*%
%FSLAX23Y23*%
%MOIN*%
%OFA0B0*%
%SFA1.0B1.0*%
%ADD10C,0.008*%
%LNCONTOUR*%
G90*
G70*
G54D10*
X1417Y9233D02*
X1418Y9233D01*
X1419Y9233D01*
X1420Y9233D01*
X1421Y9233D01*
X1422Y9233D01*
X1423Y9233D01*
X1424Y9233D01*
X1425Y9233D01*
X1426Y9233D01*
X1427Y9233D01*
X1428Y9233D01*
X1429Y9233D01*
X1430Y9233D01*
X1431Y9233D01*
X1432Y9233D01*
X1433Y9233D01*
X1434Y9233D01*
X1435Y9233D01*
X1436Y9233D01*
X1437Y9233D01*
X1438Y9233D01*
X1439Y9233D01*
X1440Y9233D01*
X1441Y9233D01*
X1442Y9233D01*
X1443Y9233D01*
X1444Y9233D01*
X1445Y9233D01*
X1446Y9233D01*
X1447Y9233D01*
X1448Y9233D01*
X1449Y9233D01*
X1450Y9233D01*
X1451Y9233D01*
X1452Y9233D01*
X1453Y9233D01*
X1454Y9233D01*
X1455Y9233D01*
X1456Y9233D01*
X1457Y9233D01*
X1458Y9233D01*
X1459Y9233D01*
X1460Y9233D01*
X1461Y9233D01*
X1462Y9233D01*
X1463Y9233D01*
X1464Y9233D01*
X1465Y9233D01*
X1466Y9233D01*
X1467Y9233D01*
X1468Y9233D01*
X1469Y9233D01*
X1470Y9233D01*
X1471Y9233D01*
X1472Y9233D01*
X1473Y9233D01*
X1474Y9233D01*
X1475Y9233D01*
X1476Y9233D01*
X1477Y9233D01*
X1478Y9233D01*
X1479Y9233D01*
X1480Y9233D01*
X1481Y9233D01*
X1482Y9233D01*
X1483Y9233D01*
X1484Y9233D01*
X1485Y9233D01*
X1486Y9233D01*
X1487Y9233D01*
X1488Y9233D01*
X1489Y9233D01*
X1490Y9233D01*
X1491Y9233D01*
X1492Y9233D01*
X1493Y9233D01*
X1494Y9233D01*
X1495Y9233D01*
X1496Y9233D01*
X1497Y9233D01*
X1498Y9233D01*
X1499Y9233D01*
X1500Y9233D01*
X1501Y9233D01*
X1502Y9233D01*
X1503Y9233D01*
X1504Y9233D01*
X1505Y9233D01*
X1506Y9233D01*
X1507Y9233D01*
X1508Y9233D01*
X1509Y9233D01*
X1510Y9233D01*
X1511Y9233D01*
X1512Y9233D01*
X1513Y9233D01*
X1514Y9233D01*
X1515Y9233D01*
X1516Y9233D01*
X1517Y9233D01*
X1518Y9233D01*
X1519Y9233D01*
X1520Y9233D01*
X1521Y9233D01*
X1522Y9232D01*
X1523Y9232D01*
X1524Y9232D01*
X1525Y9232D01*
X1526Y9232D01*
X1527Y9232D01*
X1528Y9232D01*
X1529Y9232D01*
X1530Y9232D01*
X1531Y9232D01*
X1532Y9232D01*
X1533Y9232D01*
X1534Y9232D01*
X1535Y9232D01*
X1536Y9232D01*
X1537Y9232D01*
X1538Y9232D01*
X1539Y9232D01*
X1540Y9232D01*
X1541Y9232D01*
X1542Y9232D01*
X1543Y9232D01*
X1544Y9232D01*
X1545Y9232D01*
X1546Y9232D01*
X1547Y9232D01*
X1548Y9232D01*
X1549Y9232D01*
X1550Y9232D01*
X1551Y9232D01*
X1552Y9232D01*
X1553Y9232D01*
X1554Y9232D01*
X1555Y9232D01*
X1556Y9232D01*
X1557Y9232D01*
X1558Y9232D01*
X1559Y9232D01*
X1560Y9232D01*
X1561Y9232D01*
X1562Y9232D01*
X1563Y9232D01*
X1564Y9232D01*
X1565Y9232D01*
X1566Y9232D01*
X1567Y9232D01*
X1568Y9232D01*
X1569Y9232D01*
X1570Y9232D01*
X1571Y9232D01*
X1572Y9231D01*
X1573Y9231D01*
X1574Y9231D01*
X1575Y9231D01*
X1576Y9231D01*
X1577Y9231D01*
X1578Y9231D01*
X1579Y9231D01*
X1580Y9231D01*
X1581Y9231D01*
X1582Y9231D01*
X1583Y9231D01*
X1584Y9231D01*
X1585Y9231D01*
X1586Y9231D01*
X1587Y9231D01*
X1588Y9231D01*
X1589Y9231D01*
X1590Y9231D01*
X1591Y9231D01*
X1592Y9231D01*
X1593Y9231D01*
X1594Y9231D01*
X1595Y9231D01*
X1596Y9231D01*
X1597Y9231D01*
X1598Y9231D01*
X1599Y9231D01*
X1600Y9231D01*
X1601Y9230D01*
X1602Y9230D01*
X1603Y9230D01*
X1604Y9230D01*
X1605Y9230D01*
X1606Y9230D01*
X1607Y9230D01*
X1608Y9230D01*
X1609Y9230D01*
X1610Y9230D01*
X1611Y9230D01*
X1612Y9230D01*
X1613Y9230D01*
X1614Y9230D01*
X1615Y9230D01*
X1616Y9230D01*
X1617Y9230D01*
X1618Y9230D01*
X1619Y9230D01*
X1620Y9230D01*
X1621Y9230D01*
X1622Y9230D01*
X1623Y9230D01*
X1624Y9229D01*
X1625Y9229D01*
X1626Y9229D01*
X1627Y9229D01*
X1628Y9229D01*
X1629Y9229D01*
X1630Y9229D01*
X1631Y9229D01*
X1632Y9229D01*
X1633Y9229D01*
X1634Y9229D01*
X1635Y9229D01*
X1636Y9229D01*
X1637Y9229D01*
X1638Y9229D01*
X1639Y9229D01*
X1640Y9229D01*
X1641Y9229D01*
X1642Y9229D01*
X1643Y9228D01*
X1644Y9228D01*
X1645Y9228D01*
X1646Y9228D01*
X1647Y9228D01*
X1648Y9228D01*
X1649Y9228D01*
X1650Y9228D01*
X1651Y9228D01*
X1652Y9228D01*
X1653Y9228D01*
X1654Y9228D01*
X1655Y9228D01*
X1656Y9228D01*
X1657Y9228D01*
X1658Y9228D01*
X1659Y9227D01*
X1660Y9227D01*
X1661Y9227D01*
X1662Y9227D01*
X1663Y9227D01*
X1664Y9227D01*
X1665Y9227D01*
X1666Y9227D01*
X1667Y9227D01*
X1668Y9227D01*
X1669Y9227D01*
X1670Y9227D01*
X1671Y9227D01*
X1672Y9227D01*
X1673Y9226D01*
X1674Y9226D01*
X1675Y9226D01*
X1676Y9226D01*
X1677Y9226D01*
X1678Y9226D01*
X1679Y9226D01*
X1680Y9226D01*
X1681Y9226D01*
X1682Y9226D01*
X1683Y9226D01*
X1684Y9226D01*
X1685Y9226D01*
X1686Y9226D01*
X1687Y9226D01*
X1688Y9226D01*
X1689Y9226D01*
X1690Y9225D01*
X1691Y9225D01*
X1692Y9225D01*
X1693Y9225D01*
X1694Y9225D01*
X1695Y9225D01*
X1696Y9225D01*
X1697Y9225D01*
X1698Y9225D01*
X1699Y9225D01*
X1700Y9225D01*
X1701Y9225D01*
X1702Y9225D01*
X1703Y9225D01*
X1704Y9225D01*
X1705Y9225D01*
X1706Y9225D01*
X1707Y9225D01*
X1708Y9225D01*
X1709Y9225D01*
X1710Y9224D01*
X1711Y9224D01*
X1712Y9224D01*
X1713Y9224D01*
X1714Y9224D01*
X1715Y9224D01*
X1716Y9224D01*
X1717Y9224D01*
X1718Y9224D01*
X1719Y9224D01*
X1720Y9224D01*
X1721Y9224D01*
X1722Y9224D01*
X1723Y9224D01*
X1724Y9224D01*
X1725Y9224D01*
X1726Y9223D01*
X1727Y9223D01*
X1728Y9223D01*
X1729Y9223D01*
X1730Y9223D01*
X1731Y9223D01*
X1732Y9223D01*
X1733Y9223D01*
X1734Y9223D01*
X1735Y9223D01*
X1736Y9223D01*
X1737Y9223D01*
X1738Y9223D01*
X1739Y9223D01*
X1740Y9223D01*
X1741Y9222D01*
X1742Y9222D01*
X1743Y9222D01*
X1744Y9222D01*
X1745Y9222D01*
X1746Y9222D01*
X1747Y9222D01*
X1748Y9222D01*
X1749Y9222D01*
X1750Y9222D01*
X1751Y9222D01*
X1752Y9222D01*
X1753Y9222D01*
X1754Y9222D01*
X1755Y9222D01*
X1756Y9222D01*
X1757Y9221D01*
X1758Y9221D01*
X1759Y9221D01*
X1760Y9221D01*
X1761Y9221D01*
X1762Y9221D01*
X1763Y9221D01*
X1764Y9221D01*
X1765Y9221D01*
X1766Y9221D01*
X1767Y9221D01*
X1768Y9221D01*
X1769Y9220D01*
X1770Y9220D01*
X1771Y9220D01*
X1772Y9220D01*
X1773Y9220D01*
X1774Y9220D01*
X1775Y9220D01*
X1776Y9220D01*
X1777Y9220D01*
X1778Y9220D01*
X1779Y9219D01*
X1780Y9219D01*
X1781Y9219D01*
X1782Y9219D01*
X1783Y9219D01*
X1784Y9219D01*
X1785Y9219D01*
X1786Y9219D01*
X1787Y9219D01*
X1788Y9219D01*
X1789Y9218D01*
X1790Y9218D01*
X1791Y9218D01*
X1792Y9218D01*
X1793Y9218D01*
X1794Y9218D01*
X1795Y9218D01*
X1796Y9217D01*
X1797Y9217D01*
X1798Y9217D01*
X1799Y9217D01*
X1800Y9217D01*
X1801Y9217D01*
X1802Y9217D01*
X1803Y9217D01*
X1804Y9216D01*
X1805Y9216D01*
X1806Y9216D01*
X1807Y9216D01*
X1808Y9216D01*
X1809Y9216D01*
X1810Y9216D01*
X1811Y9215D01*
X1812Y9215D01*
X1813Y9215D01*
X1814Y9215D01*
X1815Y9215D01*
X1816Y9215D01*
X1817Y9214D01*
X1818Y9214D01*
X1819Y9214D01*
X1820Y9214D01*
X1821Y9214D01*
X1822Y9214D01*
X1823Y9214D01*
X1824Y9213D01*
X1825Y9213D01*
X1826Y9213D01*
X1827Y9213D01*
X1828Y9213D01*
X1829Y9213D01*
X1830Y9212D01*
X1831Y9212D01*
X1832Y9212D01*
X1833Y9212D01*
X1834Y9212D01*
X1835Y9211D01*
X1836Y9211D01*
X1837Y9211D01*
X1838Y9211D01*
X1839Y9211D01*
X1840Y9211D01*
X1841Y9210D01*
X1842Y9210D01*
X1843Y9210D01*
X1844Y9210D01*
X1845Y9210D01*
X1846Y9209D01*
X1847Y9209D01*
X1848Y9209D01*
X1849Y9209D01*
X1850Y9209D01*
X1851Y9208D01*
X1852Y9208D01*
X1853Y9208D01*
X1854Y9208D01*
X1855Y9208D01*
X1856Y9207D01*
X1857Y9207D01*
X1858Y9207D01*
X1859Y9207D01*
X1860Y9206D01*
X1861Y9206D01*
X1862Y9206D01*
X1863Y9206D01*
X1864Y9206D01*
X1865Y9205D01*
X1866Y9205D01*
X1867Y9205D01*
X1868Y9205D01*
X1869Y9204D01*
X1870Y9204D01*
X1871Y9204D01*
X1872Y9204D01*
X1873Y9204D01*
X1874Y9203D01*
X1875Y9203D01*
X1876Y9203D01*
X1877Y9203D01*
X1878Y9202D01*
X1879Y9202D01*
X1880Y9202D01*
X1881Y9201D01*
X1882Y9201D01*
X1883Y9201D01*
X1884Y9200D01*
X1885Y9200D01*
X1886Y9200D01*
X1887Y9200D01*
X1888Y9199D01*
X1889Y9199D01*
X1890Y9199D01*
X1891Y9198D01*
X1892Y9198D01*
X1893Y9198D01*
X1894Y9197D01*
X1895Y9197D01*
X1896Y9197D01*
X1897Y9196D01*
X1898Y9196D01*
X1899Y9196D01*
X1900Y9195D01*
X1901Y9195D01*
X1902Y9195D01*
X1903Y9195D01*
X1904Y9194D01*
X1905Y9194D01*
X1906Y9194D01*
X1907Y9193D01*
X1908Y9193D01*
X1909Y9193D01*
X1910Y9192D01*
X1911Y9192D01*
X1912Y9192D01*
X1913Y9191D01*
X1914Y9191D01*
X1915Y9191D01*
X1916Y9190D01*
X1917Y9190D01*
X1918Y9189D01*
X1919Y9189D01*
X1920Y9189D01*
X1921Y9188D01*
X1922Y9188D01*
X1923Y9188D01*
X1924Y9187D01*
X1925Y9187D01*
X1926Y9187D01*
X1927Y9186D01*
X1928Y9186D01*
X1929Y9185D01*
X1930Y9185D01*
X1931Y9185D01*
X1932Y9184D01*
X1933Y9184D01*
X1934Y9183D01*
X1935Y9183D01*
X1936Y9182D01*
X1937Y9182D01*
X1938Y9182D01*
X1939Y9181D01*
X1940Y9181D01*
X1941Y9180D01*
X1942Y9180D01*
X1943Y9179D01*
X1944Y9179D01*
X1945Y9178D01*
X1946Y9178D01*
X1947Y9177D01*
X1948Y9176D01*
X1949Y9176D01*
X1950Y9175D01*
X1951Y9175D01*
X1952Y9174D01*
X1953Y9174D01*
X1954Y9173D01*
X1955Y9172D01*
X1956Y9172D01*
X1957Y9171D01*
X1958Y9170D01*
X1959Y9169D01*
X1960Y9169D01*
X1961Y9168D01*
X1962Y9167D01*
X1963Y9166D01*
X1964Y9166D01*
X1965Y9165D01*
X1966Y9164D01*
X1967Y9163D01*
X1968Y9162D01*
X1969Y9161D01*
X1970Y9160D01*
X1971Y9159D01*
X1972Y9158D01*
X1973Y9157D01*
X1974Y9156D01*
X1975Y9155D01*
X1976Y9154D01*
X1976Y9153D01*
X1977Y9152D01*
X1978Y9151D01*
X1979Y9150D01*
X1979Y9149D01*
X1980Y9148D01*
X1981Y9147D01*
X1981Y9146D01*
X1982Y9145D01*
X1983Y9144D01*
X1983Y9143D01*
X1984Y9142D01*
X1985Y9141D01*
X1985Y9140D01*
X1986Y9139D01*
X1986Y9138D01*
X1987Y9137D01*
X1987Y9136D01*
X1988Y9135D01*
X1988Y9134D01*
X1989Y9133D01*
X1989Y9132D01*
X1990Y9131D01*
X1990Y9129D01*
X1991Y9128D01*
X1991Y9127D01*
X1992Y9126D01*
X1992Y9124D01*
X1993Y9123D01*
X1993Y9121D01*
X1994Y9120D01*
X1994Y9119D01*
X1995Y9118D01*
X1995Y9116D01*
X1996Y9115D01*
X1996Y9113D01*
X1997Y9112D01*
X1997Y9110D01*
X1998Y9109D01*
X1998Y9106D01*
X1999Y9105D01*
X1999Y9103D01*
X2000Y9102D01*
X2000Y9100D01*
X2001Y9099D01*
X2001Y9097D01*
X2002Y9096D01*
X2002Y9093D01*
X2003Y9092D01*
X2003Y9090D01*
X2004Y9089D01*
X2004Y9087D01*
X2005Y9086D01*
X2005Y9084D01*
X2006Y9083D01*
X2006Y9081D01*
X2007Y9080D01*
X2007Y9077D01*
X2008Y9076D01*
X2008Y9074D01*
X2009Y9073D01*
X2009Y9072D01*
X2010Y9071D01*
X2010Y9069D01*
X2011Y9068D01*
X2011Y9066D01*
X2012Y9065D01*
X2012Y9063D01*
X2013Y9062D01*
X2013Y9061D01*
X2014Y9060D01*
X2014Y9058D01*
X2015Y9057D01*
X2015Y9056D01*
X2016Y9055D01*
X2016Y9054D01*
X2017Y9053D01*
X2017Y9052D01*
X2018Y9051D01*
X2018Y9050D01*
X2019Y9049D01*
X2019Y9047D01*
X2020Y9046D01*
X2020Y9045D01*
X2021Y9044D01*
X2021Y9042D01*
X2022Y9041D01*
X2022Y9039D01*
X2023Y9038D01*
X2023Y9037D01*
X2024Y9036D01*
X2024Y9034D01*
X2025Y9033D01*
X2025Y9032D01*
X2026Y9031D01*
X2026Y9029D01*
X2027Y9028D01*
X2027Y9027D01*
X2028Y9026D01*
X2028Y9024D01*
X2029Y9023D01*
X2029Y9022D01*
X2030Y9021D01*
X2030Y9020D01*
X2031Y9019D01*
X2031Y9017D01*
X2032Y9016D01*
X2032Y9015D01*
X2033Y9014D01*
X2033Y9012D01*
X2034Y9011D01*
X2034Y9010D01*
X2035Y9009D01*
X2035Y9008D01*
X2036Y9007D01*
X2036Y9005D01*
X2037Y9004D01*
X2037Y9003D01*
X2038Y9002D01*
X2038Y9000D01*
X2039Y8999D01*
X2039Y8998D01*
X2040Y8997D01*
X2040Y8996D01*
X2041Y8995D01*
X2041Y8993D01*
X2042Y8992D01*
X2042Y8991D01*
X2043Y8990D01*
X2043Y8988D01*
X2044Y8987D01*
X2044Y8986D01*
X2045Y8985D01*
X2045Y8983D01*
X2046Y8982D01*
X2046Y8981D01*
X2047Y8980D01*
X2047Y8978D01*
X2048Y8977D01*
X2048Y8976D01*
X2049Y8975D01*
X2049Y8973D01*
X2050Y8972D01*
X2050Y8970D01*
X2051Y8969D01*
X2051Y8967D01*
X2052Y8966D01*
X2052Y8964D01*
X2053Y8963D01*
X2053Y8961D01*
X2054Y8960D01*
X2054Y8957D01*
X2055Y8956D01*
X2055Y8954D01*
X2056Y8953D01*
X2056Y8951D01*
X2057Y8950D01*
X2057Y8947D01*
X2058Y8946D01*
X2058Y8944D01*
X2059Y8943D01*
X2059Y8940D01*
X2060Y8939D01*
X2060Y8936D01*
X2061Y8935D01*
X2061Y8931D01*
X2062Y8930D01*
X2062Y8926D01*
X2063Y8925D01*
X2063Y8919D01*
X2064Y8918D01*
X2064Y8908D01*
X2065Y8907D01*
X2065Y8894D01*
X2064Y8893D01*
X2064Y8884D01*
X2063Y8883D01*
X2063Y8879D01*
X2062Y8878D01*
X2061Y8877D01*
X2060Y8877D01*
X2059Y8876D01*
X2058Y8875D01*
X2057Y8874D01*
X2056Y8873D01*
X2055Y8872D01*
X2054Y8872D01*
X2053Y8871D01*
X2052Y8870D01*
X2051Y8870D01*
X2050Y8869D01*
X2049Y8868D01*
X2048Y8868D01*
X2047Y8867D01*
X2046Y8866D01*
X2045Y8866D01*
X2044Y8865D01*
X2043Y8865D01*
X2042Y8864D01*
X2041Y8863D01*
X2040Y8863D01*
X2039Y8862D01*
X2038Y8862D01*
X2037Y8861D01*
X2036Y8861D01*
X2035Y8860D01*
X2034Y8860D01*
X2033Y8859D01*
X2032Y8859D01*
X2031Y8858D01*
X2030Y8858D01*
X2029Y8858D01*
X2028Y8857D01*
X2027Y8857D01*
X2026Y8857D01*
X2025Y8856D01*
X2024Y8856D01*
X2023Y8856D01*
X2022Y8855D01*
X2021Y8855D01*
X2020Y8855D01*
X2019Y8854D01*
X2018Y8854D01*
X2017Y8854D01*
X2016Y8853D01*
X2015Y8853D01*
X2014Y8853D01*
X2013Y8852D01*
X2012Y8852D01*
X2011Y8852D01*
X2010Y8851D01*
X2009Y8851D01*
X2008Y8851D01*
X2007Y8850D01*
X2006Y8850D01*
X2005Y8850D01*
X2004Y8849D01*
X2003Y8849D01*
X2002Y8849D01*
X2001Y8848D01*
X2001Y8847D01*
X2002Y8846D01*
X2002Y8845D01*
X2003Y8844D01*
X2003Y8843D01*
X2004Y8842D01*
X2004Y8841D01*
X2005Y8840D01*
X2005Y8839D01*
X2006Y8838D01*
X2006Y8836D01*
X2007Y8835D01*
X2007Y8834D01*
X2008Y8833D01*
X2008Y8831D01*
X2009Y8830D01*
X2009Y8829D01*
X2010Y8828D01*
X2010Y8827D01*
X2011Y8826D01*
X2011Y8824D01*
X2012Y8823D01*
X2012Y8821D01*
X2013Y8820D01*
X2013Y8818D01*
X2014Y8817D01*
X2014Y8816D01*
X2015Y8815D01*
X2015Y8813D01*
X2016Y8812D01*
X2016Y8809D01*
X2017Y8808D01*
X2017Y8806D01*
X2018Y8805D01*
X2018Y8803D01*
X2019Y8802D01*
X2019Y8799D01*
X2020Y8798D01*
X2020Y8796D01*
X2021Y8795D01*
X2021Y8792D01*
X2022Y8791D01*
X2022Y8788D01*
X2023Y8787D01*
X2023Y8784D01*
X2024Y8783D01*
X2024Y8780D01*
X2025Y8779D01*
X2025Y8775D01*
X2026Y8774D01*
X2026Y8770D01*
X2027Y8769D01*
X2027Y8765D01*
X2028Y8764D01*
X2028Y8760D01*
X2029Y8759D01*
X2029Y8754D01*
X2030Y8753D01*
X2030Y8748D01*
X2031Y8747D01*
X2031Y8741D01*
X2032Y8740D01*
X2032Y8734D01*
X2033Y8733D01*
X2033Y8725D01*
X2034Y8724D01*
X2034Y8716D01*
X2035Y8715D01*
X2035Y8704D01*
X2036Y8703D01*
X2036Y8687D01*
X2037Y8686D01*
X2037Y8628D01*
X2036Y8627D01*
X2036Y8612D01*
X2035Y8611D01*
X2035Y8600D01*
X2034Y8599D01*
X2034Y8591D01*
X2033Y8590D01*
X2033Y8583D01*
X2032Y8582D01*
X2032Y8576D01*
X2031Y8575D01*
X2031Y8569D01*
X2030Y8568D01*
X2030Y8563D01*
X2029Y8562D01*
X2029Y8558D01*
X2028Y8557D01*
X2028Y8553D01*
X2027Y8552D01*
X2027Y8548D01*
X2026Y8547D01*
X2026Y8544D01*
X2025Y8543D01*
X2025Y8540D01*
X2024Y8539D01*
X2024Y8536D01*
X2023Y8535D01*
X2023Y8532D01*
X2022Y8531D01*
X2022Y8528D01*
X2021Y8527D01*
X2021Y8525D01*
X2020Y8524D01*
X2020Y8522D01*
X2019Y8521D01*
X2019Y8519D01*
X2018Y8518D01*
X2018Y8516D01*
X2017Y8515D01*
X2017Y8513D01*
X2016Y8512D01*
X2016Y8510D01*
X2015Y8509D01*
X2015Y8508D01*
X2014Y8507D01*
X2014Y8506D01*
X2013Y8505D01*
X2013Y8503D01*
X2012Y8502D01*
X2012Y8501D01*
X2011Y8500D01*
X2011Y8499D01*
X2010Y8498D01*
X2010Y8497D01*
X2009Y8496D01*
X2009Y8495D01*
X2008Y8494D01*
X2008Y8493D01*
X2007Y8492D01*
X2007Y8491D01*
X2006Y8490D01*
X2006Y8489D01*
X2005Y8488D01*
X2004Y8487D01*
X2004Y8486D01*
X2003Y8485D01*
X2002Y8484D01*
X2002Y8483D01*
X2001Y8482D01*
X2000Y8481D01*
X2000Y8480D01*
X1999Y8479D01*
X1998Y8478D01*
X1997Y8477D01*
X1996Y8476D01*
X1995Y8475D01*
X1994Y8474D01*
X1993Y8473D01*
X1992Y8472D01*
X1991Y8471D01*
X1990Y8470D01*
X1989Y8469D01*
X1988Y8469D01*
X1987Y8468D01*
X1986Y8467D01*
X1985Y8466D01*
X1984Y8466D01*
X1983Y8465D01*
X1982Y8464D01*
X1981Y8463D01*
X1980Y8462D01*
X1979Y8462D01*
X1978Y8461D01*
X1977Y8460D01*
X1976Y8459D01*
X1975Y8458D01*
X1975Y8457D01*
X1974Y8456D01*
X1973Y8455D01*
X1972Y8454D01*
X1971Y8453D01*
X1971Y8452D01*
X1970Y8451D01*
X1970Y8450D01*
X1969Y8449D01*
X1968Y8448D01*
X1968Y8446D01*
X1967Y8445D01*
X1967Y8444D01*
X1966Y8443D01*
X1966Y8439D01*
X1965Y8438D01*
X1965Y8428D01*
X1964Y8427D01*
X1964Y8425D01*
X1965Y8424D01*
X1965Y8410D01*
X1966Y8409D01*
X1966Y8402D01*
X1967Y8401D01*
X1967Y8394D01*
X1968Y8393D01*
X1968Y8386D01*
X1969Y8385D01*
X1969Y8379D01*
X1970Y8378D01*
X1970Y8371D01*
X1971Y8370D01*
X1971Y8363D01*
X1972Y8362D01*
X1972Y8356D01*
X1973Y8355D01*
X1973Y8348D01*
X1974Y8347D01*
X1974Y8339D01*
X1975Y8338D01*
X1975Y8331D01*
X1976Y8330D01*
X1976Y8323D01*
X1977Y8322D01*
X1977Y8314D01*
X1978Y8313D01*
X1978Y8306D01*
X1979Y8305D01*
X1979Y8297D01*
X1980Y8296D01*
X1980Y8289D01*
X1981Y8288D01*
X1981Y8281D01*
X1982Y8280D01*
X1982Y8272D01*
X1983Y8271D01*
X1983Y8264D01*
X1984Y8263D01*
X1984Y8255D01*
X1985Y8254D01*
X1985Y8247D01*
X1986Y8246D01*
X1986Y8239D01*
X1987Y8238D01*
X1987Y8230D01*
X1988Y8229D01*
X1988Y8222D01*
X1989Y8221D01*
X1989Y8213D01*
X1990Y8212D01*
X1990Y8205D01*
X1991Y8204D01*
X1991Y8196D01*
X1992Y8195D01*
X1992Y8187D01*
X1993Y8186D01*
X1993Y8179D01*
X1994Y8178D01*
X1994Y8170D01*
X1995Y8169D01*
X1995Y8161D01*
X1996Y8160D01*
X1996Y8152D01*
X1997Y8151D01*
X1997Y8144D01*
X1998Y8143D01*
X1998Y8135D01*
X1999Y8134D01*
X1999Y8126D01*
X2000Y8125D01*
X2000Y8117D01*
X2001Y8116D01*
X2001Y8108D01*
X2002Y8107D01*
X2002Y8099D01*
X2003Y8098D01*
X2003Y8090D01*
X2004Y8089D01*
X2004Y8081D01*
X2005Y8080D01*
X2005Y8072D01*
X2006Y8071D01*
X2006Y8063D01*
X2007Y8062D01*
X2007Y8054D01*
X2008Y8053D01*
X2008Y8045D01*
X2009Y8044D01*
X2009Y8036D01*
X2010Y8035D01*
X2010Y8027D01*
X2011Y8026D01*
X2011Y8018D01*
X2012Y8017D01*
X2012Y8008D01*
X2013Y8007D01*
X2013Y7999D01*
X2014Y7998D01*
X2014Y7990D01*
X2015Y7989D01*
X2015Y7981D01*
X2016Y7980D01*
X2016Y7972D01*
X2017Y7971D01*
X2017Y7962D01*
X2018Y7961D01*
X2018Y7953D01*
X2019Y7952D01*
X2019Y7943D01*
X2020Y7942D01*
X2020Y7934D01*
X2021Y7933D01*
X2021Y7924D01*
X2022Y7923D01*
X2022Y7915D01*
X2023Y7914D01*
X2023Y7905D01*
X2024Y7904D01*
X2024Y7896D01*
X2025Y7895D01*
X2025Y7886D01*
X2026Y7885D01*
X2026Y7876D01*
X2027Y7875D01*
X2027Y7867D01*
X2028Y7866D01*
X2028Y7857D01*
X2029Y7856D01*
X2029Y7847D01*
X2030Y7846D01*
X2030Y7837D01*
X2031Y7836D01*
X2031Y7827D01*
X2032Y7826D01*
X2032Y7818D01*
X2033Y7817D01*
X2033Y7808D01*
X2034Y7807D01*
X2034Y7798D01*
X2035Y7797D01*
X2035Y7788D01*
X2036Y7787D01*
X2036Y7778D01*
X2037Y7777D01*
X2037Y7767D01*
X2038Y7766D01*
X2038Y7757D01*
X2039Y7756D01*
X2039Y7747D01*
X2040Y7746D01*
X2040Y7737D01*
X2041Y7736D01*
X2041Y7727D01*
X2042Y7726D01*
X2042Y7717D01*
X2043Y7716D01*
X2043Y7706D01*
X2044Y7705D01*
X2044Y7696D01*
X2045Y7695D01*
X2045Y7685D01*
X2046Y7684D01*
X2046Y7675D01*
X2047Y7674D01*
X2047Y7664D01*
X2048Y7663D01*
X2048Y7654D01*
X2049Y7653D01*
X2049Y7643D01*
X2050Y7642D01*
X2050Y7632D01*
X2051Y7631D01*
X2051Y7622D01*
X2052Y7621D01*
X2052Y7611D01*
X2053Y7610D01*
X2053Y7600D01*
X2054Y7599D01*
X2054Y7589D01*
X2055Y7588D01*
X2055Y7578D01*
X2056Y7577D01*
X2056Y7567D01*
X2057Y7566D01*
X2057Y7556D01*
X2058Y7555D01*
X2058Y7545D01*
X2059Y7544D01*
X2059Y7534D01*
X2060Y7533D01*
X2060Y7523D01*
X2061Y7522D01*
X2061Y7511D01*
X2062Y7510D01*
X2062Y7500D01*
X2063Y7499D01*
X2063Y7488D01*
X2064Y7487D01*
X2064Y7477D01*
X2065Y7476D01*
X2065Y7465D01*
X2066Y7464D01*
X2066Y7454D01*
X2067Y7453D01*
X2067Y7442D01*
X2068Y7441D01*
X2068Y7430D01*
X2069Y7429D01*
X2069Y7418D01*
X2070Y7417D01*
X2070Y7406D01*
X2071Y7405D01*
X2071Y7394D01*
X2072Y7393D01*
X2072Y7382D01*
X2073Y7381D01*
X2073Y7369D01*
X2074Y7368D01*
X2074Y7357D01*
X2075Y7356D01*
X2075Y7345D01*
X2076Y7344D01*
X2076Y7333D01*
X2077Y7332D01*
X2077Y7320D01*
X2078Y7319D01*
X2078Y7307D01*
X2079Y7306D01*
X2079Y7294D01*
X2080Y7293D01*
X2080Y7281D01*
X2081Y7280D01*
X2081Y7268D01*
X2082Y7267D01*
X2082Y7255D01*
X2083Y7254D01*
X2083Y7242D01*
X2084Y7241D01*
X2084Y7228D01*
X2085Y7227D01*
X2085Y7214D01*
X2086Y7213D01*
X2086Y7200D01*
X2087Y7199D01*
X2087Y7186D01*
X2088Y7185D01*
X2088Y7172D01*
X2089Y7171D01*
X2089Y7158D01*
X2090Y7157D01*
X2090Y7144D01*
X2091Y7143D01*
X2091Y7128D01*
X2092Y7127D01*
X2092Y7113D01*
X2093Y7112D01*
X2093Y7098D01*
X2094Y7097D01*
X2094Y7083D01*
X2095Y7082D01*
X2095Y7068D01*
X2096Y7067D01*
X2096Y7052D01*
X2097Y7051D01*
X2097Y7036D01*
X2098Y7035D01*
X2098Y7019D01*
X2099Y7018D01*
X2099Y7002D01*
X2100Y7001D01*
X2100Y6985D01*
X2101Y6984D01*
X2101Y6969D01*
X2102Y6968D01*
X2102Y6950D01*
X2103Y6949D01*
X2103Y6930D01*
X2104Y6929D01*
X2104Y6910D01*
X2105Y6909D01*
X2105Y6886D01*
X2106Y6885D01*
X2106Y6861D01*
X2107Y6860D01*
X2107Y6830D01*
X2108Y6829D01*
X2108Y6795D01*
X2109Y6794D01*
X2109Y6750D01*
X2110Y6749D01*
X2110Y6677D01*
X2111Y6676D01*
X2111Y6404D01*
X2112Y6403D01*
X2112Y6314D01*
X2113Y6313D01*
X2113Y6271D01*
X2114Y6270D01*
X2114Y6239D01*
X2115Y6238D01*
X2115Y6214D01*
X2116Y6213D01*
X2116Y6194D01*
X2117Y6193D01*
X2117Y6175D01*
X2118Y6174D01*
X2118Y6159D01*
X2119Y6158D01*
X2119Y6144D01*
X2120Y6143D01*
X2120Y6130D01*
X2121Y6129D01*
X2121Y6118D01*
X2122Y6117D01*
X2122Y6107D01*
X2123Y6106D01*
X2123Y6095D01*
X2124Y6094D01*
X2124Y6085D01*
X2125Y6084D01*
X2125Y6075D01*
X2126Y6074D01*
X2126Y6066D01*
X2127Y6065D01*
X2127Y6057D01*
X2128Y6056D01*
X2128Y6049D01*
X2129Y6048D01*
X2129Y6041D01*
X2130Y6040D01*
X2130Y6033D01*
X2131Y6032D01*
X2131Y6026D01*
X2132Y6025D01*
X2132Y6019D01*
X2133Y6018D01*
X2133Y6012D01*
X2134Y6011D01*
X2134Y6005D01*
X2135Y6004D01*
X2135Y5998D01*
X2136Y5997D01*
X2136Y5992D01*
X2137Y5991D01*
X2137Y5986D01*
X2138Y5985D01*
X2138Y5980D01*
X2139Y5979D01*
X2139Y5974D01*
X2140Y5973D01*
X2140Y5969D01*
X2141Y5968D01*
X2141Y5963D01*
X2142Y5962D01*
X2142Y5958D01*
X2143Y5957D01*
X2143Y5953D01*
X2144Y5952D01*
X2144Y5948D01*
X2145Y5947D01*
X2145Y5942D01*
X2146Y5941D01*
X2146Y5938D01*
X2147Y5937D01*
X2147Y5933D01*
X2148Y5932D01*
X2148Y5928D01*
X2149Y5927D01*
X2149Y5923D01*
X2150Y5922D01*
X2150Y5919D01*
X2151Y5918D01*
X2151Y5915D01*
X2152Y5914D01*
X2152Y5910D01*
X2153Y5909D01*
X2153Y5906D01*
X2154Y5905D01*
X2154Y5902D01*
X2155Y5901D01*
X2155Y5898D01*
X2156Y5897D01*
X2156Y5894D01*
X2157Y5893D01*
X2157Y5890D01*
X2158Y5889D01*
X2158Y5886D01*
X2159Y5885D01*
X2159Y5882D01*
X2160Y5881D01*
X2160Y5878D01*
X2161Y5877D01*
X2161Y5874D01*
X2162Y5873D01*
X2162Y5870D01*
X2163Y5869D01*
X2163Y5867D01*
X2164Y5866D01*
X2164Y5863D01*
X2165Y5862D01*
X2165Y5860D01*
X2166Y5859D01*
X2166Y5856D01*
X2167Y5855D01*
X2167Y5853D01*
X2168Y5852D01*
X2168Y5849D01*
X2169Y5848D01*
X2169Y5846D01*
X2170Y5845D01*
X2170Y5843D01*
X2171Y5842D01*
X2171Y5840D01*
X2172Y5839D01*
X2172Y5836D01*
X2173Y5835D01*
X2173Y5833D01*
X2174Y5832D01*
X2174Y5830D01*
X2175Y5829D01*
X2175Y5827D01*
X2176Y5826D01*
X2176Y5824D01*
X2177Y5823D01*
X2177Y5821D01*
X2178Y5820D01*
X2178Y5818D01*
X2179Y5817D01*
X2179Y5815D01*
X2180Y5814D01*
X2180Y5812D01*
X2181Y5811D01*
X2181Y5809D01*
X2182Y5808D01*
X2182Y5806D01*
X2183Y5805D01*
X2183Y5803D01*
X2184Y5802D01*
X2184Y5800D01*
X2185Y5799D01*
X2185Y5798D01*
X2186Y5797D01*
X2186Y5795D01*
X2187Y5794D01*
X2187Y5792D01*
X2188Y5791D01*
X2188Y5789D01*
X2189Y5788D01*
X2189Y5787D01*
X2190Y5786D01*
X2190Y5784D01*
X2191Y5783D01*
X2191Y5781D01*
X2192Y5780D01*
X2192Y5779D01*
X2193Y5778D01*
X2193Y5776D01*
X2194Y5775D01*
X2194Y5774D01*
X2195Y5773D01*
X2195Y5771D01*
X2196Y5770D01*
X2196Y5769D01*
X2197Y5768D01*
X2197Y5766D01*
X2198Y5765D01*
X2198Y5764D01*
X2199Y5763D01*
X2199Y5761D01*
X2200Y5760D01*
X2200Y5759D01*
X2201Y5758D01*
X2201Y5756D01*
X2202Y5755D01*
X2202Y5754D01*
X2203Y5753D01*
X2203Y5752D01*
X2204Y5751D01*
X2204Y5749D01*
X2205Y5748D01*
X2205Y5747D01*
X2206Y5746D01*
X2206Y5745D01*
X2207Y5744D01*
X2207Y5742D01*
X2208Y5741D01*
X2208Y5740D01*
X2209Y5739D01*
X2209Y5738D01*
X2210Y5737D01*
X2210Y5736D01*
X2211Y5735D01*
X2211Y5733D01*
X2212Y5732D01*
X2212Y5731D01*
X2213Y5730D01*
X2213Y5729D01*
X2214Y5728D01*
X2214Y5727D01*
X2215Y5726D01*
X2215Y5725D01*
X2216Y5724D01*
X2216Y5723D01*
X2217Y5722D01*
X2217Y5720D01*
X2218Y5719D01*
X2218Y5718D01*
X2219Y5717D01*
X2219Y5716D01*
X2220Y5715D01*
X2220Y5714D01*
X2221Y5713D01*
X2221Y5712D01*
X2222Y5711D01*
X2222Y5710D01*
X2223Y5709D01*
X2223Y5708D01*
X2224Y5707D01*
X2224Y5706D01*
X2225Y5705D01*
X2225Y5704D01*
X2226Y5703D01*
X2226Y5702D01*
X2227Y5701D01*
X2227Y5700D01*
X2228Y5699D01*
X2228Y5698D01*
X2229Y5697D01*
X2229Y5696D01*
X2230Y5695D01*
X2230Y5694D01*
X2231Y5693D01*
X2231Y5692D01*
X2232Y5691D01*
X2232Y5690D01*
X2233Y5689D01*
X2233Y5688D01*
X2234Y5687D01*
X2234Y5686D01*
X2235Y5685D01*
X2236Y5684D01*
X2236Y5683D01*
X2237Y5682D01*
X2237Y5681D01*
X2238Y5680D01*
X2238Y5679D01*
X2239Y5678D01*
X2239Y5677D01*
X2240Y5676D01*
X2240Y5675D01*
X2241Y5674D01*
X2241Y5673D01*
X2242Y5672D01*
X2243Y5671D01*
X2243Y5670D01*
X2244Y5669D01*
X2244Y5668D01*
X2245Y5667D01*
X2245Y5666D01*
X2246Y5665D01*
X2247Y5664D01*
X2247Y5663D01*
X2248Y5662D01*
X2248Y5661D01*
X2249Y5660D01*
X2249Y5659D01*
X2250Y5658D01*
X2251Y5657D01*
X2251Y5656D01*
X2252Y5655D01*
X2252Y5654D01*
X2253Y5653D01*
X2253Y5652D01*
X2254Y5651D01*
X2255Y5650D01*
X2255Y5649D01*
X2256Y5648D01*
X2256Y5647D01*
X2257Y5646D01*
X2258Y5645D01*
X2258Y5644D01*
X2259Y5643D01*
X2259Y5642D01*
X2260Y5641D01*
X2261Y5640D01*
X2261Y5639D01*
X2262Y5638D01*
X2263Y5637D01*
X2264Y5636D01*
X2265Y5635D01*
X2265Y5634D01*
X2266Y5633D01*
X2267Y5632D01*
X2268Y5631D01*
X2269Y5630D01*
X2270Y5629D01*
X2271Y5628D01*
X2272Y5627D01*
X2273Y5626D01*
X2274Y5625D01*
X2274Y5624D01*
X2275Y5623D01*
X2276Y5622D01*
X2277Y5621D01*
X2278Y5620D01*
X2279Y5619D01*
X2280Y5618D01*
X2281Y5617D01*
X2282Y5616D01*
X2283Y5615D01*
X2284Y5614D01*
X2285Y5613D01*
X2285Y5612D01*
X2286Y5611D01*
X2287Y5610D01*
X2288Y5609D01*
X2289Y5608D01*
X2290Y5607D01*
X2291Y5606D01*
X2292Y5605D01*
X2293Y5604D01*
X2294Y5603D01*
X2295Y5602D01*
X2296Y5601D01*
X2297Y5600D01*
X2298Y5599D01*
X2298Y5598D01*
X2299Y5597D01*
X2300Y5596D01*
X2301Y5595D01*
X2302Y5594D01*
X2303Y5593D01*
X2304Y5592D01*
X2305Y5591D01*
X2306Y5590D01*
X2307Y5589D01*
X2308Y5588D01*
X2309Y5587D01*
X2310Y5586D01*
X2311Y5585D01*
X2312Y5584D01*
X2313Y5583D01*
X2314Y5582D01*
X2315Y5581D01*
X2316Y5580D01*
X2317Y5579D01*
X2318Y5578D01*
X2319Y5577D01*
X2320Y5576D01*
X2321Y5575D01*
X2322Y5574D01*
X2323Y5573D01*
X2324Y5572D01*
X2325Y5571D01*
X2326Y5570D01*
X2327Y5569D01*
X2328Y5568D01*
X2329Y5567D01*
X2330Y5566D01*
X2331Y5565D01*
X2332Y5564D01*
X2333Y5563D01*
X2334Y5562D01*
X2335Y5561D01*
X2335Y5560D01*
X2336Y5559D01*
X2337Y5558D01*
X2338Y5558D01*
X2339Y5557D01*
X2340Y5556D01*
X2341Y5555D01*
X2342Y5554D01*
X2343Y5553D01*
X2344Y5552D01*
X2345Y5551D01*
X2346Y5550D01*
X2347Y5549D01*
X2348Y5548D01*
X2349Y5547D01*
X2350Y5546D01*
X2351Y5545D01*
X2352Y5544D01*
X2353Y5543D01*
X2354Y5542D01*
X2355Y5541D01*
X2356Y5540D01*
X2357Y5539D01*
X2358Y5538D01*
X2359Y5537D01*
X2360Y5536D01*
X2361Y5535D01*
X2362Y5534D01*
X2363Y5533D01*
X2364Y5532D01*
X2365Y5531D01*
X2366Y5530D01*
X2367Y5529D01*
X2368Y5528D01*
X2369Y5527D01*
X2370Y5526D01*
X2371Y5525D01*
X2372Y5524D01*
X2373Y5523D01*
X2374Y5522D01*
X2375Y5521D01*
X2376Y5520D01*
X2377Y5519D01*
X2378Y5518D01*
X2379Y5517D01*
X2380Y5516D01*
X2381Y5515D01*
X2382Y5514D01*
X2383Y5513D01*
X2384Y5512D01*
X2385Y5511D01*
X2386Y5510D01*
X2387Y5509D01*
X2388Y5508D01*
X2389Y5507D01*
X2390Y5506D01*
X2391Y5505D01*
X2392Y5504D01*
X2393Y5504D01*
X2394Y5503D01*
X2395Y5502D01*
X2396Y5501D01*
X2397Y5500D01*
X2398Y5499D01*
X2399Y5498D01*
X2400Y5497D01*
X2401Y5496D01*
X2402Y5495D01*
X2403Y5494D01*
X2404Y5493D01*
X2405Y5492D01*
X2406Y5491D01*
X2407Y5490D01*
X2408Y5489D01*
X2409Y5488D01*
X2410Y5487D01*
X2411Y5486D01*
X2412Y5485D01*
X2413Y5484D01*
X2414Y5483D01*
X2415Y5482D01*
X2416Y5481D01*
X2417Y5480D01*
X2418Y5479D01*
X2419Y5478D01*
X2420Y5477D01*
X2421Y5476D01*
X2422Y5475D01*
X2423Y5474D01*
X2424Y5473D01*
X2425Y5473D01*
X2426Y5472D01*
X2427Y5471D01*
X2428Y5470D01*
X2429Y5469D01*
X2430Y5468D01*
X2431Y5467D01*
X2432Y5466D01*
X2433Y5465D01*
X2434Y5464D01*
X2435Y5463D01*
X2436Y5462D01*
X2437Y5461D01*
X2438Y5460D01*
X2439Y5459D01*
X2440Y5458D01*
X2441Y5457D01*
X2442Y5456D01*
X2443Y5455D01*
X2444Y5454D01*
X2445Y5453D01*
X2446Y5452D01*
X2447Y5451D01*
X2448Y5450D01*
X2449Y5449D01*
X2450Y5448D01*
X2451Y5447D01*
X2452Y5446D01*
X2453Y5445D01*
X2454Y5444D01*
X2455Y5443D01*
X2456Y5442D01*
X2457Y5441D01*
X2458Y5440D01*
X2459Y5439D01*
X2460Y5438D01*
X2461Y5437D01*
X2462Y5437D01*
X2463Y5436D01*
X2464Y5435D01*
X2465Y5434D01*
X2466Y5433D01*
X2467Y5432D01*
X2468Y5431D01*
X2469Y5430D01*
X2470Y5429D01*
X2471Y5428D01*
X2472Y5427D01*
X2473Y5426D01*
X2474Y5425D01*
X2475Y5424D01*
X2476Y5423D01*
X2477Y5422D01*
X2478Y5421D01*
X2479Y5420D01*
X2480Y5419D01*
X2481Y5418D01*
X2482Y5417D01*
X2483Y5416D01*
X2484Y5415D01*
X2485Y5414D01*
X2486Y5413D01*
X2487Y5412D01*
X2488Y5411D01*
X2489Y5410D01*
X2490Y5409D01*
X2491Y5408D01*
X2492Y5407D01*
X2493Y5406D01*
X2494Y5405D01*
X2495Y5404D01*
X2496Y5403D01*
X2497Y5402D01*
X2498Y5401D01*
X2499Y5400D01*
X2500Y5399D01*
X2501Y5398D01*
X2502Y5397D01*
X2503Y5396D01*
X2504Y5395D01*
X2505Y5394D01*
X2506Y5393D01*
X2507Y5392D01*
X2508Y5391D01*
X2509Y5390D01*
X2510Y5389D01*
X2511Y5388D01*
X2511Y5387D01*
X2512Y5386D01*
X2513Y5385D01*
X2514Y5384D01*
X2515Y5383D01*
X2516Y5382D01*
X2517Y5381D01*
X2518Y5380D01*
X2519Y5379D01*
X2520Y5378D01*
X2521Y5377D01*
X2522Y5376D01*
X2523Y5375D01*
X2524Y5374D01*
X2525Y5373D01*
X2526Y5372D01*
X2527Y5371D01*
X2528Y5370D01*
X2529Y5369D01*
X2530Y5368D01*
X2531Y5367D01*
X2532Y5366D01*
X2533Y5365D01*
X2534Y5364D01*
X2534Y5363D01*
X2535Y5362D01*
X2536Y5361D01*
X2537Y5360D01*
X2538Y5359D01*
X2539Y5358D01*
X2540Y5357D01*
X2541Y5356D01*
X2542Y5355D01*
X2543Y5354D01*
X2544Y5353D01*
X2545Y5352D01*
X2546Y5351D01*
X2547Y5350D01*
X2547Y5349D01*
X2548Y5348D01*
X2549Y5347D01*
X2550Y5346D01*
X2551Y5345D01*
X2552Y5344D01*
X2553Y5343D01*
X2554Y5342D01*
X2555Y5341D01*
X2556Y5340D01*
X2557Y5339D01*
X2557Y5338D01*
X2558Y5337D01*
X2559Y5336D01*
X2560Y5335D01*
X2561Y5334D01*
X2562Y5333D01*
X2563Y5332D01*
X2564Y5331D01*
X2565Y5330D01*
X2566Y5329D01*
X2566Y5328D01*
X2567Y5327D01*
X2568Y5326D01*
X2569Y5325D01*
X2570Y5324D01*
X2571Y5323D01*
X2572Y5322D01*
X2573Y5321D01*
X2573Y5320D01*
X2574Y5319D01*
X2575Y5318D01*
X2576Y5317D01*
X2577Y5316D01*
X2578Y5315D01*
X2579Y5314D01*
X2579Y5313D01*
X2580Y5312D01*
X2581Y5311D01*
X2582Y5310D01*
X2583Y5309D01*
X2584Y5308D01*
X2585Y5307D01*
X2585Y5306D01*
X2586Y5305D01*
X2587Y5304D01*
X2588Y5303D01*
X2589Y5302D01*
X2590Y5301D01*
X2590Y5300D01*
X2591Y5299D01*
X2592Y5298D01*
X2593Y5297D01*
X2594Y5296D01*
X2595Y5295D01*
X2595Y5294D01*
X2596Y5293D01*
X2597Y5292D01*
X2598Y5291D01*
X2599Y5290D01*
X2599Y5289D01*
X2600Y5288D01*
X2601Y5287D01*
X2602Y5286D01*
X2603Y5285D01*
X2603Y5284D01*
X2604Y5283D01*
X2605Y5282D01*
X2606Y5281D01*
X2607Y5280D01*
X2607Y5279D01*
X2608Y5278D01*
X2609Y5277D01*
X2610Y5276D01*
X2611Y5275D01*
X2611Y5274D01*
X2612Y5273D01*
X2613Y5272D01*
X2614Y5271D01*
X2614Y5270D01*
X2615Y5269D01*
X2616Y5268D01*
X2617Y5267D01*
X2617Y5266D01*
X2618Y5265D01*
X2619Y5264D01*
X2620Y5263D01*
X2621Y5262D01*
X2621Y5261D01*
X2622Y5260D01*
X2623Y5259D01*
X2624Y5258D01*
X2624Y5257D01*
X2625Y5256D01*
X2626Y5255D01*
X2626Y5254D01*
X2627Y5253D01*
X2628Y5252D01*
X2629Y5251D01*
X2629Y5250D01*
X2630Y5249D01*
X2631Y5248D01*
X2632Y5247D01*
X2632Y5246D01*
X2633Y5245D01*
X2634Y5244D01*
X2634Y5243D01*
X2635Y5242D01*
X2636Y5241D01*
X2637Y5240D01*
X2637Y5239D01*
X2638Y5238D01*
X2639Y5237D01*
X2639Y5236D01*
X2640Y5235D01*
X2641Y5234D01*
X2641Y5233D01*
X2642Y5232D01*
X2643Y5231D01*
X2643Y5230D01*
X2644Y5229D01*
X2645Y5228D01*
X2645Y5227D01*
X2646Y5226D01*
X2647Y5225D01*
X2647Y5224D01*
X2648Y5223D01*
X2649Y5222D01*
X2649Y5221D01*
X2650Y5220D01*
X2651Y5219D01*
X2651Y5218D01*
X2652Y5217D01*
X2653Y5216D01*
X2653Y5215D01*
X2654Y5214D01*
X2655Y5213D01*
X2655Y5212D01*
X2656Y5211D01*
X2657Y5210D01*
X2657Y5209D01*
X2658Y5208D01*
X2658Y5207D01*
X2659Y5206D01*
X2660Y5205D01*
X2660Y5204D01*
X2661Y5203D01*
X2662Y5202D01*
X2662Y5201D01*
X2663Y5200D01*
X2663Y5199D01*
X2664Y5198D01*
X2665Y5197D01*
X2665Y5196D01*
X2666Y5195D01*
X2666Y5194D01*
X2667Y5193D01*
X2668Y5192D01*
X2668Y5191D01*
X2669Y5190D01*
X2669Y5189D01*
X2670Y5188D01*
X2671Y5187D01*
X2671Y5186D01*
X2672Y5185D01*
X2672Y5184D01*
X2673Y5183D01*
X2673Y5182D01*
X2674Y5181D01*
X2675Y5180D01*
X2675Y5179D01*
X2676Y5178D01*
X2676Y5177D01*
X2677Y5176D01*
X2677Y5175D01*
X2678Y5174D01*
X2678Y5173D01*
X2679Y5172D01*
X2680Y5171D01*
X2680Y5170D01*
X2681Y5169D01*
X2681Y5168D01*
X2682Y5167D01*
X2682Y5166D01*
X2683Y5165D01*
X2683Y5164D01*
X2684Y5163D01*
X2684Y5162D01*
X2685Y5161D01*
X2685Y5160D01*
X2686Y5159D01*
X2686Y5158D01*
X2687Y5157D01*
X2687Y5156D01*
X2688Y5155D01*
X2688Y5154D01*
X2689Y5153D01*
X2689Y5152D01*
X2690Y5151D01*
X2690Y5150D01*
X2691Y5149D01*
X2691Y5148D01*
X2692Y5147D01*
X2692Y5146D01*
X2693Y5145D01*
X2693Y5144D01*
X2694Y5143D01*
X2694Y5142D01*
X2695Y5141D01*
X2695Y5140D01*
X2696Y5139D01*
X2696Y5138D01*
X2697Y5137D01*
X2697Y5135D01*
X2698Y5134D01*
X2698Y5133D01*
X2699Y5132D01*
X2699Y5131D01*
X2700Y5130D01*
X2700Y5129D01*
X2701Y5128D01*
X2701Y5126D01*
X2702Y5125D01*
X2702Y5124D01*
X2703Y5123D01*
X2703Y5122D01*
X2704Y5121D01*
X2704Y5119D01*
X2705Y5118D01*
X2705Y5117D01*
X2706Y5116D01*
X2706Y5114D01*
X2707Y5113D01*
X2707Y5112D01*
X2708Y5111D01*
X2708Y5109D01*
X2709Y5108D01*
X2709Y5107D01*
X2710Y5106D01*
X2710Y5104D01*
X2711Y5103D01*
X2711Y5101D01*
X2712Y5100D01*
X2712Y5099D01*
X2713Y5098D01*
X2713Y5096D01*
X2714Y5095D01*
X2714Y5093D01*
X2715Y5092D01*
X2715Y5090D01*
X2716Y5089D01*
X2716Y5087D01*
X2717Y5086D01*
X2717Y5084D01*
X2718Y5083D01*
X2718Y5081D01*
X2719Y5080D01*
X2719Y5078D01*
X2720Y5077D01*
X2720Y5075D01*
X2721Y5074D01*
X2721Y5071D01*
X2722Y5070D01*
X2722Y5068D01*
X2723Y5067D01*
X2723Y5064D01*
X2724Y5063D01*
X2724Y5061D01*
X2725Y5060D01*
X2725Y5057D01*
X2726Y5056D01*
X2726Y5053D01*
X2727Y5052D01*
X2727Y5049D01*
X2728Y5048D01*
X2728Y5045D01*
X2729Y5044D01*
X2729Y5041D01*
X2730Y5040D01*
X2730Y5036D01*
X2731Y5035D01*
X2731Y5031D01*
X2732Y5030D01*
X2732Y5026D01*
X2733Y5025D01*
X2733Y5021D01*
X2734Y5020D01*
X2734Y5015D01*
X2735Y5014D01*
X2735Y5009D01*
X2736Y5008D01*
X2736Y5002D01*
X2737Y5001D01*
X2737Y4994D01*
X2738Y4993D01*
X2738Y4985D01*
X2739Y4984D01*
X2739Y4973D01*
X2740Y4972D01*
X2740Y4951D01*
X2741Y4950D01*
X2741Y4586D01*
X2742Y4585D01*
X2742Y3899D01*
X2743Y3898D01*
X2743Y2824D01*
X2742Y2823D01*
X2742Y542D01*
X2741Y541D01*
X2741Y531D01*
X2740Y530D01*
X2740Y525D01*
X2739Y524D01*
X2739Y519D01*
X2738Y518D01*
X2738Y515D01*
X2737Y514D01*
X2737Y511D01*
X2736Y510D01*
X2736Y507D01*
X2735Y506D01*
X2735Y504D01*
X2734Y503D01*
X2734Y500D01*
X2733Y499D01*
X2733Y497D01*
X2732Y496D01*
X2732Y494D01*
X2731Y493D01*
X2731Y491D01*
X2730Y490D01*
X2730Y488D01*
X2729Y487D01*
X2729Y486D01*
X2728Y485D01*
X2728Y483D01*
X2727Y482D01*
X2727Y481D01*
X2726Y480D01*
X2726Y478D01*
X2725Y477D01*
X2725Y476D01*
X2724Y475D01*
X2724Y474D01*
X2723Y473D01*
X2723Y471D01*
X2722Y470D01*
X2722Y469D01*
X2721Y468D01*
X2721Y467D01*
X2720Y466D01*
X2720Y465D01*
X2719Y464D01*
X2719Y463D01*
X2718Y462D01*
X2718Y461D01*
X2717Y460D01*
X2717Y459D01*
X2716Y458D01*
X2716Y457D01*
X2715Y456D01*
X2715Y455D01*
X2714Y454D01*
X2714Y453D01*
X2713Y452D01*
X2713Y451D01*
X2712Y450D01*
X2711Y449D01*
X2711Y448D01*
X2710Y447D01*
X2710Y446D01*
X2709Y445D01*
X2709Y444D01*
X2708Y443D01*
X2708Y442D01*
X2707Y441D01*
X2706Y440D01*
X2706Y439D01*
X2705Y438D01*
X2705Y437D01*
X2704Y436D01*
X2703Y435D01*
X2703Y434D01*
X2702Y433D01*
X2702Y432D01*
X2701Y431D01*
X2700Y430D01*
X2700Y429D01*
X2699Y428D01*
X2698Y427D01*
X2698Y426D01*
X2697Y425D01*
X2696Y424D01*
X2696Y423D01*
X2695Y422D01*
X2694Y421D01*
X2694Y420D01*
X2693Y419D01*
X2692Y418D01*
X2692Y417D01*
X2691Y416D01*
X2690Y415D01*
X2690Y414D01*
X2689Y413D01*
X2688Y412D01*
X2687Y411D01*
X2687Y410D01*
X2686Y409D01*
X2685Y408D01*
X2685Y407D01*
X2684Y406D01*
X2683Y405D01*
X2682Y404D01*
X2682Y403D01*
X2681Y402D01*
X2680Y401D01*
X2679Y400D01*
X2679Y399D01*
X2678Y398D01*
X2677Y397D01*
X2676Y396D01*
X2676Y395D01*
X2675Y394D01*
X2674Y393D01*
X2673Y392D01*
X2673Y391D01*
X2672Y390D01*
X2671Y389D01*
X2670Y388D01*
X2669Y387D01*
X2669Y386D01*
X2668Y385D01*
X2667Y384D01*
X2666Y383D01*
X2665Y382D01*
X2664Y381D01*
X2664Y380D01*
X2663Y379D01*
X2662Y378D01*
X2661Y377D01*
X2660Y376D01*
X2659Y375D01*
X2659Y374D01*
X2658Y373D01*
X2657Y372D01*
X2656Y371D01*
X2655Y370D01*
X2654Y369D01*
X2653Y368D01*
X2652Y367D01*
X2651Y366D01*
X2651Y365D01*
X2650Y364D01*
X2649Y363D01*
X2648Y362D01*
X2647Y361D01*
X2646Y360D01*
X2645Y359D01*
X2644Y358D01*
X2643Y357D01*
X2642Y356D01*
X2641Y355D01*
X2640Y354D01*
X2640Y353D01*
X2639Y352D01*
X2638Y351D01*
X2637Y350D01*
X2636Y349D01*
X2635Y348D01*
X2634Y347D01*
X2633Y346D01*
X2632Y345D01*
X2631Y344D01*
X2630Y343D01*
X2629Y342D01*
X2628Y341D01*
X2627Y340D01*
X2626Y339D01*
X2625Y338D01*
X2624Y337D01*
X2623Y336D01*
X2622Y335D01*
X2621Y334D01*
X2620Y333D01*
X2619Y332D01*
X2618Y331D01*
X2617Y330D01*
X2616Y329D01*
X2615Y328D01*
X2614Y328D01*
X2613Y327D01*
X2612Y326D01*
X2611Y325D01*
X2610Y324D01*
X2609Y323D01*
X2608Y322D01*
X2607Y321D01*
X2606Y320D01*
X2605Y319D01*
X2604Y318D01*
X2603Y317D01*
X2602Y316D01*
X2601Y316D01*
X2600Y315D01*
X2599Y314D01*
X2598Y313D01*
X2597Y312D01*
X2596Y311D01*
X2595Y310D01*
X2594Y309D01*
X2593Y309D01*
X2592Y308D01*
X2591Y307D01*
X2590Y306D01*
X2589Y305D01*
X2588Y304D01*
X2587Y303D01*
X2586Y302D01*
X2585Y302D01*
X2584Y301D01*
X2583Y300D01*
X2582Y299D01*
X2581Y298D01*
X2580Y297D01*
X2579Y297D01*
X2578Y296D01*
X2577Y295D01*
X2576Y294D01*
X2575Y293D01*
X2574Y293D01*
X2573Y292D01*
X2572Y291D01*
X2571Y290D01*
X2570Y289D01*
X2569Y288D01*
X2568Y288D01*
X2567Y287D01*
X2566Y286D01*
X2565Y285D01*
X2564Y285D01*
X2563Y284D01*
X2562Y283D01*
X2561Y282D01*
X2560Y281D01*
X2559Y281D01*
X2558Y280D01*
X2557Y279D01*
X2556Y278D01*
X2555Y278D01*
X2554Y277D01*
X2553Y276D01*
X2552Y275D01*
X2551Y274D01*
X2550Y274D01*
X2549Y273D01*
X2548Y272D01*
X2547Y272D01*
X2546Y271D01*
X2545Y270D01*
X2544Y269D01*
X2543Y269D01*
X2542Y268D01*
X2541Y267D01*
X2540Y266D01*
X2539Y266D01*
X2538Y265D01*
X2537Y264D01*
X2536Y263D01*
X2535Y263D01*
X2534Y262D01*
X2533Y261D01*
X2532Y261D01*
X2531Y260D01*
X2530Y259D01*
X2529Y258D01*
X2528Y258D01*
X2527Y257D01*
X2526Y256D01*
X2525Y256D01*
X2524Y255D01*
X2523Y254D01*
X2522Y254D01*
X2521Y253D01*
X2520Y252D01*
X2519Y252D01*
X2518Y251D01*
X2517Y250D01*
X2516Y249D01*
X2515Y249D01*
X2514Y248D01*
X2513Y247D01*
X2512Y247D01*
X2511Y246D01*
X2510Y245D01*
X2509Y245D01*
X2508Y244D01*
X2507Y244D01*
X2506Y243D01*
X2505Y242D01*
X2504Y242D01*
X2503Y241D01*
X2502Y240D01*
X2501Y240D01*
X2500Y239D01*
X2499Y238D01*
X2498Y238D01*
X2497Y237D01*
X2496Y236D01*
X2495Y236D01*
X2494Y235D01*
X2493Y234D01*
X2492Y234D01*
X2491Y233D01*
X2490Y233D01*
X2489Y232D01*
X2488Y231D01*
X2487Y231D01*
X2486Y230D01*
X2485Y229D01*
X2484Y229D01*
X2483Y228D01*
X2482Y228D01*
X2481Y227D01*
X2480Y226D01*
X2479Y226D01*
X2478Y225D01*
X2477Y225D01*
X2476Y224D01*
X2475Y223D01*
X2474Y223D01*
X2473Y222D01*
X2472Y222D01*
X2471Y221D01*
X2470Y220D01*
X2469Y220D01*
X2468Y219D01*
X2467Y219D01*
X2466Y218D01*
X2465Y218D01*
X2464Y217D01*
X2463Y216D01*
X2462Y216D01*
X2461Y215D01*
X2460Y215D01*
X2459Y214D01*
X2458Y213D01*
X2457Y213D01*
X2456Y212D01*
X2455Y212D01*
X2454Y211D01*
X2453Y211D01*
X2452Y210D01*
X2451Y210D01*
X2450Y209D01*
X2449Y208D01*
X2448Y208D01*
X2447Y207D01*
X2446Y207D01*
X2445Y206D01*
X2444Y206D01*
X2443Y205D01*
X2442Y205D01*
X2441Y204D01*
X2440Y203D01*
X2439Y203D01*
X2438Y202D01*
X2437Y202D01*
X2436Y201D01*
X2435Y201D01*
X2434Y200D01*
X2433Y200D01*
X2432Y199D01*
X2431Y199D01*
X2430Y198D01*
X2429Y198D01*
X2428Y197D01*
X2427Y197D01*
X2426Y196D01*
X2425Y196D01*
X2424Y195D01*
X2423Y195D01*
X2422Y194D01*
X2421Y194D01*
X2420Y193D01*
X2419Y193D01*
X2418Y192D01*
X2417Y191D01*
X2416Y191D01*
X2415Y190D01*
X2414Y190D01*
X2413Y189D01*
X2412Y189D01*
X2411Y188D01*
X2410Y188D01*
X2409Y187D01*
X2408Y187D01*
X2407Y187D01*
X2406Y186D01*
X2405Y186D01*
X2404Y185D01*
X2403Y185D01*
X2402Y184D01*
X2401Y184D01*
X2400Y183D01*
X2399Y183D01*
X2398Y182D01*
X2397Y182D01*
X2396Y181D01*
X2395Y181D01*
X2394Y180D01*
X2393Y180D01*
X2392Y179D01*
X2391Y179D01*
X2390Y178D01*
X2389Y178D01*
X2388Y177D01*
X2387Y177D01*
X2386Y177D01*
X2385Y176D01*
X2384Y176D01*
X2383Y175D01*
X2382Y175D01*
X2381Y174D01*
X2380Y174D01*
X2379Y173D01*
X2378Y173D01*
X2377Y173D01*
X2376Y172D01*
X2375Y172D01*
X2374Y171D01*
X2373Y171D01*
X2372Y170D01*
X2371Y170D01*
X2370Y169D01*
X2369Y169D01*
X2368Y169D01*
X2367Y168D01*
X2366Y168D01*
X2365Y167D01*
X2364Y167D01*
X2363Y166D01*
X2362Y166D01*
X2361Y166D01*
X2360Y165D01*
X2359Y165D01*
X2358Y164D01*
X2357Y164D01*
X2356Y163D01*
X2355Y163D01*
X2354Y163D01*
X2353Y162D01*
X2352Y162D01*
X2351Y161D01*
X2350Y161D01*
X2349Y161D01*
X2348Y160D01*
X2347Y160D01*
X2346Y159D01*
X2345Y159D01*
X2344Y159D01*
X2343Y158D01*
X2342Y158D01*
X2341Y157D01*
X2340Y157D01*
X2339Y157D01*
X2338Y156D01*
X2337Y156D01*
X2336Y155D01*
X2335Y155D01*
X2334Y155D01*
X2333Y154D01*
X2332Y154D01*
X2331Y153D01*
X2330Y153D01*
X2329Y153D01*
X2328Y152D01*
X2327Y152D01*
X2326Y152D01*
X2325Y151D01*
X2324Y151D01*
X2323Y150D01*
X2322Y150D01*
X2321Y150D01*
X2320Y149D01*
X2319Y149D01*
X2318Y149D01*
X2317Y148D01*
X2316Y148D01*
X2315Y147D01*
X2314Y147D01*
X2313Y147D01*
X2312Y146D01*
X2311Y146D01*
X2310Y146D01*
X2309Y145D01*
X2308Y145D01*
X2307Y145D01*
X2306Y144D01*
X2305Y144D01*
X2304Y144D01*
X2303Y143D01*
X2302Y143D01*
X2301Y143D01*
X2300Y142D01*
X2299Y142D01*
X2298Y141D01*
X2297Y141D01*
X2296Y141D01*
X2295Y140D01*
X2294Y140D01*
X2293Y140D01*
X2292Y139D01*
X2291Y139D01*
X2290Y139D01*
X2289Y138D01*
X2288Y138D01*
X2287Y138D01*
X2286Y137D01*
X2285Y137D01*
X2284Y137D01*
X2283Y136D01*
X2282Y136D01*
X2281Y136D01*
X2280Y135D01*
X2279Y135D01*
X2278Y135D01*
X2277Y134D01*
X2276Y134D01*
X2275Y134D01*
X2274Y134D01*
X2273Y133D01*
X2272Y133D01*
X2271Y133D01*
X2270Y132D01*
X2269Y132D01*
X2268Y132D01*
X2267Y131D01*
X2266Y131D01*
X2265Y131D01*
X2264Y130D01*
X2263Y130D01*
X2262Y130D01*
X2261Y129D01*
X2260Y129D01*
X2259Y129D01*
X2258Y128D01*
X2257Y128D01*
X2256Y128D01*
X2255Y128D01*
X2254Y127D01*
X2253Y127D01*
X2252Y127D01*
X2251Y126D01*
X2250Y126D01*
X2249Y126D01*
X2248Y125D01*
X2247Y125D01*
X2246Y125D01*
X2245Y124D01*
X2244Y124D01*
X2243Y124D01*
X2242Y123D01*
X2241Y123D01*
X2240Y123D01*
X2239Y123D01*
X2238Y122D01*
X2237Y122D01*
X2236Y122D01*
X2235Y121D01*
X2234Y121D01*
X2233Y121D01*
X2232Y121D01*
X2231Y120D01*
X2230Y120D01*
X2229Y120D01*
X2228Y119D01*
X2227Y119D01*
X2226Y119D01*
X2225Y118D01*
X2224Y118D01*
X2223Y118D01*
X2222Y118D01*
X2221Y117D01*
X2220Y117D01*
X2219Y117D01*
X2218Y116D01*
X2217Y116D01*
X2216Y116D01*
X2215Y116D01*
X2214Y115D01*
X2213Y115D01*
X2212Y115D01*
X2211Y114D01*
X2210Y114D01*
X2209Y114D01*
X2208Y114D01*
X2207Y113D01*
X2206Y113D01*
X2205Y113D01*
X2204Y112D01*
X2203Y112D01*
X2202Y112D01*
X2201Y112D01*
X2200Y111D01*
X2199Y111D01*
X2198Y111D01*
X2197Y111D01*
X2196Y110D01*
X2195Y110D01*
X2194Y110D01*
X2193Y109D01*
X2192Y109D01*
X2191Y109D01*
X2190Y109D01*
X2189Y108D01*
X2188Y108D01*
X2187Y108D01*
X2186Y108D01*
X2185Y107D01*
X2184Y107D01*
X2183Y107D01*
X2182Y106D01*
X2181Y106D01*
X2180Y106D01*
X2179Y106D01*
X2178Y105D01*
X2177Y105D01*
X2176Y105D01*
X2175Y105D01*
X2174Y104D01*
X2173Y104D01*
X2172Y104D01*
X2171Y104D01*
X2170Y103D01*
X2169Y103D01*
X2168Y103D01*
X2167Y103D01*
X2166Y102D01*
X2165Y102D01*
X2164Y102D01*
X2163Y101D01*
X2162Y101D01*
X2161Y101D01*
X2160Y101D01*
X2159Y100D01*
X2158Y100D01*
X2157Y100D01*
X2156Y100D01*
X2155Y99D01*
X2154Y99D01*
X2153Y99D01*
X2152Y99D01*
X2151Y98D01*
X2150Y98D01*
X2149Y98D01*
X2148Y98D01*
X2147Y97D01*
X2146Y97D01*
X2145Y97D01*
X2144Y97D01*
X2143Y96D01*
X2142Y96D01*
X2141Y96D01*
X2140Y96D01*
X2139Y95D01*
X2138Y95D01*
X2137Y95D01*
X2136Y95D01*
X2135Y94D01*
X2134Y94D01*
X2133Y94D01*
X2132Y94D01*
X2131Y94D01*
X2130Y93D01*
X2129Y93D01*
X2128Y93D01*
X2127Y93D01*
X2126Y92D01*
X2125Y92D01*
X2124Y92D01*
X2123Y92D01*
X2122Y91D01*
X2121Y91D01*
X2120Y91D01*
X2119Y91D01*
X2118Y90D01*
X2117Y90D01*
X2116Y90D01*
X2115Y90D01*
X2114Y89D01*
X2113Y89D01*
X2112Y89D01*
X2111Y89D01*
X2110Y89D01*
X2109Y88D01*
X2108Y88D01*
X2107Y88D01*
X2106Y88D01*
X2105Y87D01*
X2104Y87D01*
X2103Y87D01*
X2102Y87D01*
X2101Y86D01*
X2100Y86D01*
X2099Y86D01*
X2098Y86D01*
X2097Y86D01*
X2096Y85D01*
X2095Y85D01*
X2094Y85D01*
X2093Y85D01*
X2092Y84D01*
X2091Y84D01*
X2090Y84D01*
X2089Y84D01*
X2088Y84D01*
X2087Y83D01*
X2086Y83D01*
X2085Y83D01*
X2084Y83D01*
X2083Y82D01*
X2082Y82D01*
X2081Y82D01*
X2080Y82D01*
X2079Y82D01*
X2078Y81D01*
X2077Y81D01*
X2076Y81D01*
X2075Y81D01*
X2074Y81D01*
X2073Y80D01*
X2072Y80D01*
X2071Y80D01*
X2070Y80D01*
X2069Y79D01*
X2068Y79D01*
X2067Y79D01*
X2066Y79D01*
X2065Y79D01*
X2064Y78D01*
X2063Y78D01*
X2062Y78D01*
X2061Y78D01*
X2060Y78D01*
X2059Y77D01*
X2058Y77D01*
X2057Y77D01*
X2056Y77D01*
X2055Y76D01*
X2054Y76D01*
X2053Y76D01*
X2052Y76D01*
X2051Y76D01*
X2050Y75D01*
X2049Y75D01*
X2048Y75D01*
X2047Y75D01*
X2046Y75D01*
X2045Y74D01*
X2044Y74D01*
X2043Y74D01*
X2042Y74D01*
X2041Y74D01*
X2040Y73D01*
X2039Y73D01*
X2038Y73D01*
X2037Y73D01*
X2036Y73D01*
X2035Y72D01*
X2034Y72D01*
X2033Y72D01*
X2032Y72D01*
X2031Y72D01*
X2030Y71D01*
X2029Y71D01*
X2028Y71D01*
X2027Y71D01*
X2026Y71D01*
X2025Y70D01*
X2024Y70D01*
X2023Y70D01*
X2022Y70D01*
X2021Y70D01*
X2020Y70D01*
X2019Y69D01*
X2018Y69D01*
X2017Y69D01*
X2016Y69D01*
X2015Y69D01*
X2014Y68D01*
X2013Y68D01*
X2012Y68D01*
X2011Y68D01*
X2010Y68D01*
X2009Y67D01*
X2008Y67D01*
X2007Y67D01*
X2006Y67D01*
X2005Y67D01*
X2004Y67D01*
X2003Y66D01*
X2002Y66D01*
X2001Y66D01*
X2000Y66D01*
X1999Y66D01*
X1998Y65D01*
X1997Y65D01*
X1996Y65D01*
X1995Y65D01*
X1994Y65D01*
X1993Y64D01*
X1992Y64D01*
X1991Y64D01*
X1990Y64D01*
X1989Y64D01*
X1988Y64D01*
X1987Y63D01*
X1986Y63D01*
X1985Y63D01*
X1984Y63D01*
X1983Y63D01*
X1982Y63D01*
X1981Y62D01*
X1980Y62D01*
X1979Y62D01*
X1978Y62D01*
X1977Y62D01*
X1976Y61D01*
X1975Y61D01*
X1974Y61D01*
X1973Y61D01*
X1972Y61D01*
X1971Y61D01*
X1970Y60D01*
X1969Y60D01*
X1968Y60D01*
X1967Y60D01*
X1966Y60D01*
X1965Y60D01*
X1964Y59D01*
X1963Y59D01*
X1962Y59D01*
X1961Y59D01*
X1960Y59D01*
X1959Y59D01*
X1958Y58D01*
X1957Y58D01*
X1956Y58D01*
X1955Y58D01*
X1954Y58D01*
X1953Y58D01*
X1952Y57D01*
X1951Y57D01*
X1950Y57D01*
X1949Y57D01*
X1948Y57D01*
X1947Y57D01*
X1946Y56D01*
X1945Y56D01*
X1944Y56D01*
X1943Y56D01*
X1942Y56D01*
X1941Y56D01*
X1940Y55D01*
X1939Y55D01*
X1938Y55D01*
X1937Y55D01*
X1936Y55D01*
X1935Y55D01*
X1934Y54D01*
X1933Y54D01*
X1932Y54D01*
X1931Y54D01*
X1930Y54D01*
X1929Y54D01*
X1928Y53D01*
X1927Y53D01*
X1926Y53D01*
X1925Y53D01*
X1924Y53D01*
X1923Y53D01*
X1922Y53D01*
X1921Y52D01*
X1920Y52D01*
X1919Y52D01*
X1918Y52D01*
X1917Y52D01*
X1916Y52D01*
X1915Y51D01*
X1914Y51D01*
X1913Y51D01*
X1912Y51D01*
X1911Y51D01*
X1910Y51D01*
X1909Y50D01*
X1908Y50D01*
X1907Y50D01*
X1906Y50D01*
X1905Y50D01*
X1904Y50D01*
X1903Y50D01*
X1902Y49D01*
X1901Y49D01*
X1900Y49D01*
X1899Y49D01*
X1898Y49D01*
X1897Y49D01*
X1896Y49D01*
X1895Y48D01*
X1894Y48D01*
X1893Y48D01*
X1892Y48D01*
X1891Y48D01*
X1890Y48D01*
X1889Y48D01*
X1888Y47D01*
X1887Y47D01*
X1886Y47D01*
X1885Y47D01*
X1884Y47D01*
X1883Y47D01*
X1882Y47D01*
X1881Y46D01*
X1880Y46D01*
X1879Y46D01*
X1878Y46D01*
X1877Y46D01*
X1876Y46D01*
X1875Y46D01*
X1874Y45D01*
X1873Y45D01*
X1872Y45D01*
X1871Y45D01*
X1870Y45D01*
X1869Y45D01*
X1868Y45D01*
X1867Y44D01*
X1866Y44D01*
X1865Y44D01*
X1864Y44D01*
X1863Y44D01*
X1862Y44D01*
X1861Y44D01*
X1860Y44D01*
X1859Y43D01*
X1858Y43D01*
X1857Y43D01*
X1856Y43D01*
X1855Y43D01*
X1854Y43D01*
X1853Y43D01*
X1852Y42D01*
X1851Y42D01*
X1850Y42D01*
X1849Y42D01*
X1848Y42D01*
X1847Y42D01*
X1846Y42D01*
X1845Y42D01*
X1844Y41D01*
X1843Y41D01*
X1842Y41D01*
X1841Y41D01*
X1840Y41D01*
X1839Y41D01*
X1838Y41D01*
X1837Y41D01*
X1836Y40D01*
X1835Y40D01*
X1834Y40D01*
X1833Y40D01*
X1832Y40D01*
X1831Y40D01*
X1830Y40D01*
X1829Y39D01*
X1828Y39D01*
X1827Y39D01*
X1826Y39D01*
X1825Y39D01*
X1824Y39D01*
X1823Y39D01*
X1822Y39D01*
X1821Y38D01*
X1820Y38D01*
X1819Y38D01*
X1818Y38D01*
X1817Y38D01*
X1816Y38D01*
X1815Y38D01*
X1814Y38D01*
X1813Y38D01*
X1812Y37D01*
X1811Y37D01*
X1810Y37D01*
X1809Y37D01*
X1808Y37D01*
X1807Y37D01*
X1806Y37D01*
X1805Y37D01*
X1804Y36D01*
X1803Y36D01*
X1802Y36D01*
X1801Y36D01*
X1800Y36D01*
X1799Y36D01*
X1798Y36D01*
X1797Y36D01*
X1796Y36D01*
X1795Y35D01*
X1794Y35D01*
X1793Y35D01*
X1792Y35D01*
X1791Y35D01*
X1790Y35D01*
X1789Y35D01*
X1788Y35D01*
X1787Y35D01*
X1786Y34D01*
X1785Y34D01*
X1784Y34D01*
X1783Y34D01*
X1782Y34D01*
X1781Y34D01*
X1780Y34D01*
X1779Y34D01*
X1778Y34D01*
X1777Y33D01*
X1776Y33D01*
X1775Y33D01*
X1774Y33D01*
X1773Y33D01*
X1772Y33D01*
X1771Y33D01*
X1770Y33D01*
X1769Y33D01*
X1768Y32D01*
X1767Y32D01*
X1766Y32D01*
X1765Y32D01*
X1764Y32D01*
X1763Y32D01*
X1762Y32D01*
X1761Y32D01*
X1760Y32D01*
X1759Y31D01*
X1758Y31D01*
X1757Y31D01*
X1756Y31D01*
X1755Y31D01*
X1754Y31D01*
X1753Y31D01*
X1752Y31D01*
X1751Y31D01*
X1750Y31D01*
X1749Y30D01*
X1748Y30D01*
X1747Y30D01*
X1746Y30D01*
X1745Y30D01*
X1744Y30D01*
X1743Y30D01*
X1742Y30D01*
X1741Y30D01*
X1740Y30D01*
X1739Y30D01*
X1738Y29D01*
X1737Y29D01*
X1736Y29D01*
X1735Y29D01*
X1734Y29D01*
X1733Y29D01*
X1732Y29D01*
X1731Y29D01*
X1730Y29D01*
X1729Y29D01*
X1728Y28D01*
X1727Y28D01*
X1726Y28D01*
X1725Y28D01*
X1724Y28D01*
X1723Y28D01*
X1722Y28D01*
X1721Y28D01*
X1720Y28D01*
X1719Y28D01*
X1718Y28D01*
X1717Y27D01*
X1716Y27D01*
X1715Y27D01*
X1714Y27D01*
X1713Y27D01*
X1712Y27D01*
X1711Y27D01*
X1710Y27D01*
X1709Y27D01*
X1708Y27D01*
X1707Y27D01*
X1706Y26D01*
X1705Y26D01*
X1704Y26D01*
X1703Y26D01*
X1702Y26D01*
X1701Y26D01*
X1700Y26D01*
X1699Y26D01*
X1698Y26D01*
X1697Y26D01*
X1696Y26D01*
X1695Y25D01*
X1694Y25D01*
X1693Y25D01*
X1692Y25D01*
X1691Y25D01*
X1690Y25D01*
X1689Y25D01*
X1688Y25D01*
X1687Y25D01*
X1686Y25D01*
X1685Y25D01*
X1684Y25D01*
X1683Y24D01*
X1682Y24D01*
X1681Y24D01*
X1680Y24D01*
X1679Y24D01*
X1678Y24D01*
X1677Y24D01*
X1676Y24D01*
X1675Y24D01*
X1674Y24D01*
X1673Y24D01*
X1672Y24D01*
X1671Y24D01*
X1670Y23D01*
X1669Y23D01*
X1668Y23D01*
X1667Y23D01*
X1666Y23D01*
X1665Y23D01*
X1664Y23D01*
X1663Y23D01*
X1662Y23D01*
X1661Y23D01*
X1660Y23D01*
X1659Y23D01*
X1658Y23D01*
X1657Y22D01*
X1656Y22D01*
X1655Y22D01*
X1654Y22D01*
X1653Y22D01*
X1652Y22D01*
X1651Y22D01*
X1650Y22D01*
X1649Y22D01*
X1648Y22D01*
X1647Y22D01*
X1646Y22D01*
X1645Y22D01*
X1644Y21D01*
X1643Y21D01*
X1642Y21D01*
X1641Y21D01*
X1640Y21D01*
X1639Y21D01*
X1638Y21D01*
X1637Y21D01*
X1636Y21D01*
X1635Y21D01*
X1634Y21D01*
X1633Y21D01*
X1632Y21D01*
X1631Y21D01*
X1630Y21D01*
X1629Y20D01*
X1628Y20D01*
X1627Y20D01*
X1626Y20D01*
X1625Y20D01*
X1624Y20D01*
X1623Y20D01*
X1622Y20D01*
X1621Y20D01*
X1620Y20D01*
X1619Y20D01*
X1618Y20D01*
X1617Y20D01*
X1616Y20D01*
X1615Y20D01*
X1614Y20D01*
X1613Y19D01*
X1612Y19D01*
X1611Y19D01*
X1610Y19D01*
X1609Y19D01*
X1608Y19D01*
X1607Y19D01*
X1606Y19D01*
X1605Y19D01*
X1604Y19D01*
X1603Y19D01*
X1602Y19D01*
X1601Y19D01*
X1600Y19D01*
X1599Y19D01*
X1598Y19D01*
X1597Y19D01*
X1596Y18D01*
X1595Y18D01*
X1594Y18D01*
X1593Y18D01*
X1592Y18D01*
X1591Y18D01*
X1590Y18D01*
X1589Y18D01*
X1588Y18D01*
X1587Y18D01*
X1586Y18D01*
X1585Y18D01*
X1584Y18D01*
X1583Y18D01*
X1582Y18D01*
X1581Y18D01*
X1580Y18D01*
X1579Y17D01*
X1578Y17D01*
X1577Y17D01*
X1576Y17D01*
X1575Y17D01*
X1574Y17D01*
X1573Y17D01*
X1572Y17D01*
X1571Y17D01*
X1570Y17D01*
X1569Y17D01*
X1568Y17D01*
X1567Y17D01*
X1566Y17D01*
X1565Y17D01*
X1564Y17D01*
X1563Y17D01*
X1562Y17D01*
X1561Y17D01*
X1560Y17D01*
X1559Y16D01*
X1558Y16D01*
X1557Y16D01*
X1556Y16D01*
X1555Y16D01*
X1554Y16D01*
X1553Y16D01*
X1552Y16D01*
X1551Y16D01*
X1550Y16D01*
X1549Y16D01*
X1548Y16D01*
X1547Y16D01*
X1546Y16D01*
X1545Y16D01*
X1544Y16D01*
X1543Y16D01*
X1542Y16D01*
X1541Y16D01*
X1540Y16D01*
X1539Y16D01*
X1538Y16D01*
X1537Y16D01*
X1536Y15D01*
X1535Y15D01*
X1534Y15D01*
X1533Y15D01*
X1532Y15D01*
X1531Y15D01*
X1530Y15D01*
X1529Y15D01*
X1528Y15D01*
X1527Y15D01*
X1526Y15D01*
X1525Y15D01*
X1524Y15D01*
X1523Y15D01*
X1522Y15D01*
X1521Y15D01*
X1520Y15D01*
X1519Y15D01*
X1518Y15D01*
X1517Y15D01*
X1516Y15D01*
X1515Y15D01*
X1514Y15D01*
X1513Y15D01*
X1512Y15D01*
X1511Y14D01*
X1510Y14D01*
X1509Y14D01*
X1508Y14D01*
X1507Y14D01*
X1506Y14D01*
X1505Y14D01*
X1504Y14D01*
X1503Y14D01*
X1502Y14D01*
X1501Y14D01*
X1500Y14D01*
X1499Y14D01*
X1498Y14D01*
X1497Y14D01*
X1496Y14D01*
X1495Y14D01*
X1494Y14D01*
X1493Y14D01*
X1492Y14D01*
X1491Y14D01*
X1490Y14D01*
X1489Y14D01*
X1488Y14D01*
X1487Y14D01*
X1486Y14D01*
X1485Y14D01*
X1484Y14D01*
X1483Y14D01*
X1482Y14D01*
X1481Y14D01*
X1480Y14D01*
X1479Y14D01*
X1478Y13D01*
X1477Y13D01*
X1476Y13D01*
X1475Y13D01*
X1474Y13D01*
X1473Y13D01*
X1472Y13D01*
X1471Y13D01*
X1470Y13D01*
X1469Y13D01*
X1468Y13D01*
X1467Y13D01*
X1466Y13D01*
X1465Y13D01*
X1464Y13D01*
X1463Y13D01*
X1462Y13D01*
X1461Y13D01*
X1460Y13D01*
X1459Y13D01*
X1458Y13D01*
X1457Y13D01*
X1456Y13D01*
X1455Y13D01*
X1454Y13D01*
X1453Y13D01*
X1452Y13D01*
X1451Y13D01*
X1450Y13D01*
X1449Y13D01*
X1448Y13D01*
X1447Y13D01*
X1446Y13D01*
X1445Y13D01*
X1444Y13D01*
X1443Y13D01*
X1442Y13D01*
X1441Y13D01*
X1440Y13D01*
X1439Y13D01*
X1438Y13D01*
X1437Y13D01*
X1436Y13D01*
X1435Y13D01*
X1434Y13D01*
X1433Y13D01*
X1432Y13D01*
X1431Y13D01*
X1430Y13D01*
X1429Y12D01*
X1428Y12D01*
X1427Y12D01*
X1426Y12D01*
X1425Y12D01*
X1424Y12D01*
X1423Y12D01*
X1422Y12D01*
X1421Y12D01*
X1420Y12D01*
X1419Y12D01*
X1418Y12D01*
X1417Y12D01*
X1416Y12D01*
X1415Y12D01*
X1414Y12D01*
X1413Y12D01*
X1412Y12D01*
X1411Y12D01*
X1410Y12D01*
X1409Y12D01*
X1408Y12D01*
X1407Y12D01*
X1406Y12D01*
X1405Y12D01*
X1404Y12D01*
X1403Y12D01*
X1402Y12D01*
X1401Y12D01*
X1400Y12D01*
X1399Y12D01*
X1398Y12D01*
X1397Y12D01*
X1396Y12D01*
X1395Y12D01*
X1394Y12D01*
X1393Y12D01*
X1392Y12D01*
X1391Y12D01*
X1390Y12D01*
X1389Y12D01*
X1388Y12D01*
X1387Y12D01*
X1386Y12D01*
X1385Y12D01*
X1384Y12D01*
X1383Y12D01*
X1382Y12D01*
X1381Y12D01*
X1380Y12D01*
X1379Y12D01*
X1378Y12D01*
X1377Y12D01*
X1376Y12D01*
X1375Y12D01*
X1374Y12D01*
X1373Y12D01*
X1372Y12D01*
X1371Y12D01*
X1370Y12D01*
X1369Y12D01*
X1368Y12D01*
X1367Y12D01*
X1366Y12D01*
X1365Y12D01*
X1364Y12D01*
X1363Y12D01*
X1362Y12D01*
X1361Y12D01*
X1360Y12D01*
X1359Y12D01*
X1358Y12D01*
X1357Y12D01*
X1356Y12D01*
X1355Y12D01*
X1354Y12D01*
X1353Y12D01*
X1352Y12D01*
X1351Y12D01*
X1350Y12D01*
X1349Y12D01*
X1348Y12D01*
X1347Y12D01*
X1346Y12D01*
X1345Y12D01*
X1344Y12D01*
X1343Y12D01*
X1342Y12D01*
X1341Y12D01*
X1340Y12D01*
X1339Y12D01*
X1338Y12D01*
X1337Y12D01*
X1336Y12D01*
X1335Y12D01*
X1334Y12D01*
X1333Y12D01*
X1332Y12D01*
X1331Y12D01*
X1330Y12D01*
X1329Y12D01*
X1328Y12D01*
X1327Y12D01*
X1326Y12D01*
X1325Y12D01*
X1324Y12D01*
X1323Y13D01*
X1322Y13D01*
X1321Y13D01*
X1320Y13D01*
X1319Y13D01*
X1318Y13D01*
X1317Y13D01*
X1316Y13D01*
X1315Y13D01*
X1314Y13D01*
X1313Y13D01*
X1312Y13D01*
X1311Y13D01*
X1310Y13D01*
X1309Y13D01*
X1308Y13D01*
X1307Y13D01*
X1306Y13D01*
X1305Y13D01*
X1304Y13D01*
X1303Y13D01*
X1302Y13D01*
X1301Y13D01*
X1300Y13D01*
X1299Y13D01*
X1298Y13D01*
X1297Y13D01*
X1296Y13D01*
X1295Y13D01*
X1294Y13D01*
X1293Y13D01*
X1292Y13D01*
X1291Y13D01*
X1290Y13D01*
X1289Y13D01*
X1288Y13D01*
X1287Y13D01*
X1286Y13D01*
X1285Y13D01*
X1284Y13D01*
X1283Y13D01*
X1282Y13D01*
X1281Y13D01*
X1280Y13D01*
X1279Y13D01*
X1278Y13D01*
X1277Y13D01*
X1276Y13D01*
X1275Y13D01*
X1274Y13D01*
X1273Y14D01*
X1272Y14D01*
X1271Y14D01*
X1270Y14D01*
X1269Y14D01*
X1268Y14D01*
X1267Y14D01*
X1266Y14D01*
X1265Y14D01*
X1264Y14D01*
X1263Y14D01*
X1262Y14D01*
X1261Y14D01*
X1260Y14D01*
X1259Y14D01*
X1258Y14D01*
X1257Y14D01*
X1256Y14D01*
X1255Y14D01*
X1254Y14D01*
X1253Y14D01*
X1252Y14D01*
X1251Y14D01*
X1250Y14D01*
X1249Y14D01*
X1248Y14D01*
X1247Y14D01*
X1246Y14D01*
X1245Y14D01*
X1244Y14D01*
X1243Y14D01*
X1242Y14D01*
X1241Y15D01*
X1240Y15D01*
X1239Y15D01*
X1238Y15D01*
X1237Y15D01*
X1236Y15D01*
X1235Y15D01*
X1234Y15D01*
X1233Y15D01*
X1232Y15D01*
X1231Y15D01*
X1230Y15D01*
X1229Y15D01*
X1228Y15D01*
X1227Y15D01*
X1226Y15D01*
X1225Y15D01*
X1224Y15D01*
X1223Y15D01*
X1222Y15D01*
X1221Y15D01*
X1220Y15D01*
X1219Y15D01*
X1218Y15D01*
X1217Y15D01*
X1216Y15D01*
X1215Y15D01*
X1214Y16D01*
X1213Y16D01*
X1212Y16D01*
X1211Y16D01*
X1210Y16D01*
X1209Y16D01*
X1208Y16D01*
X1207Y16D01*
X1206Y16D01*
X1205Y16D01*
X1204Y16D01*
X1203Y16D01*
X1202Y16D01*
X1201Y16D01*
X1200Y16D01*
X1199Y16D01*
X1198Y16D01*
X1197Y16D01*
X1196Y16D01*
X1195Y16D01*
X1194Y16D01*
X1193Y16D01*
X1192Y17D01*
X1191Y17D01*
X1190Y17D01*
X1189Y17D01*
X1188Y17D01*
X1187Y17D01*
X1186Y17D01*
X1185Y17D01*
X1184Y17D01*
X1183Y17D01*
X1182Y17D01*
X1181Y17D01*
X1180Y17D01*
X1179Y17D01*
X1178Y17D01*
X1177Y17D01*
X1176Y17D01*
X1175Y17D01*
X1174Y17D01*
X1173Y17D01*
X1172Y18D01*
X1171Y18D01*
X1170Y18D01*
X1169Y18D01*
X1168Y18D01*
X1167Y18D01*
X1166Y18D01*
X1165Y18D01*
X1164Y18D01*
X1163Y18D01*
X1162Y18D01*
X1161Y18D01*
X1160Y18D01*
X1159Y18D01*
X1158Y18D01*
X1157Y18D01*
X1156Y18D01*
X1155Y18D01*
X1154Y19D01*
X1153Y19D01*
X1152Y19D01*
X1151Y19D01*
X1150Y19D01*
X1149Y19D01*
X1148Y19D01*
X1147Y19D01*
X1146Y19D01*
X1145Y19D01*
X1144Y19D01*
X1143Y19D01*
X1142Y19D01*
X1141Y19D01*
X1140Y19D01*
X1139Y19D01*
X1138Y19D01*
X1137Y20D01*
X1136Y20D01*
X1135Y20D01*
X1134Y20D01*
X1133Y20D01*
X1132Y20D01*
X1131Y20D01*
X1130Y20D01*
X1129Y20D01*
X1128Y20D01*
X1127Y20D01*
X1126Y20D01*
X1125Y20D01*
X1124Y20D01*
X1123Y20D01*
X1122Y21D01*
X1121Y21D01*
X1120Y21D01*
X1119Y21D01*
X1118Y21D01*
X1117Y21D01*
X1116Y21D01*
X1115Y21D01*
X1114Y21D01*
X1113Y21D01*
X1112Y21D01*
X1111Y21D01*
X1110Y21D01*
X1109Y21D01*
X1108Y21D01*
X1107Y22D01*
X1106Y22D01*
X1105Y22D01*
X1104Y22D01*
X1103Y22D01*
X1102Y22D01*
X1101Y22D01*
X1100Y22D01*
X1099Y22D01*
X1098Y22D01*
X1097Y22D01*
X1096Y22D01*
X1095Y22D01*
X1094Y22D01*
X1093Y23D01*
X1092Y23D01*
X1091Y23D01*
X1090Y23D01*
X1089Y23D01*
X1088Y23D01*
X1087Y23D01*
X1086Y23D01*
X1085Y23D01*
X1084Y23D01*
X1083Y23D01*
X1082Y23D01*
X1081Y23D01*
X1080Y24D01*
X1079Y24D01*
X1078Y24D01*
X1077Y24D01*
X1076Y24D01*
X1075Y24D01*
X1074Y24D01*
X1073Y24D01*
X1072Y24D01*
X1071Y24D01*
X1070Y24D01*
X1069Y24D01*
X1068Y24D01*
X1067Y25D01*
X1066Y25D01*
X1065Y25D01*
X1064Y25D01*
X1063Y25D01*
X1062Y25D01*
X1061Y25D01*
X1060Y25D01*
X1059Y25D01*
X1058Y25D01*
X1057Y25D01*
X1056Y25D01*
X1055Y26D01*
X1054Y26D01*
X1053Y26D01*
X1052Y26D01*
X1051Y26D01*
X1050Y26D01*
X1049Y26D01*
X1048Y26D01*
X1047Y26D01*
X1046Y26D01*
X1045Y26D01*
X1044Y27D01*
X1043Y27D01*
X1042Y27D01*
X1041Y27D01*
X1040Y27D01*
X1039Y27D01*
X1038Y27D01*
X1037Y27D01*
X1036Y27D01*
X1035Y27D01*
X1034Y27D01*
X1033Y28D01*
X1032Y28D01*
X1031Y28D01*
X1030Y28D01*
X1029Y28D01*
X1028Y28D01*
X1027Y28D01*
X1026Y28D01*
X1025Y28D01*
X1024Y28D01*
X1023Y28D01*
X1022Y29D01*
X1021Y29D01*
X1020Y29D01*
X1019Y29D01*
X1018Y29D01*
X1017Y29D01*
X1016Y29D01*
X1015Y29D01*
X1014Y29D01*
X1013Y29D01*
X1012Y30D01*
X1011Y30D01*
X1010Y30D01*
X1009Y30D01*
X1008Y30D01*
X1007Y30D01*
X1006Y30D01*
X1005Y30D01*
X1004Y30D01*
X1003Y30D01*
X1002Y30D01*
X1001Y31D01*
X1000Y31D01*
X999Y31D01*
X998Y31D01*
X997Y31D01*
X996Y31D01*
X995Y31D01*
X994Y31D01*
X993Y31D01*
X992Y31D01*
X991Y32D01*
X990Y32D01*
X989Y32D01*
X988Y32D01*
X987Y32D01*
X986Y32D01*
X985Y32D01*
X984Y32D01*
X983Y32D01*
X982Y33D01*
X981Y33D01*
X980Y33D01*
X979Y33D01*
X978Y33D01*
X977Y33D01*
X976Y33D01*
X975Y33D01*
X974Y33D01*
X973Y34D01*
X972Y34D01*
X971Y34D01*
X970Y34D01*
X969Y34D01*
X968Y34D01*
X967Y34D01*
X966Y34D01*
X965Y34D01*
X964Y35D01*
X963Y35D01*
X962Y35D01*
X961Y35D01*
X960Y35D01*
X959Y35D01*
X958Y35D01*
X957Y35D01*
X956Y35D01*
X955Y36D01*
X954Y36D01*
X953Y36D01*
X952Y36D01*
X951Y36D01*
X950Y36D01*
X949Y36D01*
X948Y36D01*
X947Y36D01*
X946Y37D01*
X945Y37D01*
X944Y37D01*
X943Y37D01*
X942Y37D01*
X941Y37D01*
X940Y37D01*
X939Y37D01*
X938Y38D01*
X937Y38D01*
X936Y38D01*
X935Y38D01*
X934Y38D01*
X933Y38D01*
X932Y38D01*
X931Y38D01*
X930Y38D01*
X929Y39D01*
X928Y39D01*
X927Y39D01*
X926Y39D01*
X925Y39D01*
X924Y39D01*
X923Y39D01*
X922Y39D01*
X921Y40D01*
X920Y40D01*
X919Y40D01*
X918Y40D01*
X917Y40D01*
X916Y40D01*
X915Y40D01*
X914Y41D01*
X913Y41D01*
X912Y41D01*
X911Y41D01*
X910Y41D01*
X909Y41D01*
X908Y41D01*
X907Y41D01*
X906Y42D01*
X905Y42D01*
X904Y42D01*
X903Y42D01*
X902Y42D01*
X901Y42D01*
X900Y42D01*
X899Y42D01*
X898Y43D01*
X897Y43D01*
X896Y43D01*
X895Y43D01*
X894Y43D01*
X893Y43D01*
X892Y43D01*
X891Y44D01*
X890Y44D01*
X889Y44D01*
X888Y44D01*
X887Y44D01*
X886Y44D01*
X885Y44D01*
X884Y44D01*
X883Y45D01*
X882Y45D01*
X881Y45D01*
X880Y45D01*
X879Y45D01*
X878Y45D01*
X877Y45D01*
X876Y46D01*
X875Y46D01*
X874Y46D01*
X873Y46D01*
X872Y46D01*
X871Y46D01*
X870Y46D01*
X869Y47D01*
X868Y47D01*
X867Y47D01*
X866Y47D01*
X865Y47D01*
X864Y47D01*
X863Y47D01*
X862Y48D01*
X861Y48D01*
X860Y48D01*
X859Y48D01*
X858Y48D01*
X857Y48D01*
X856Y48D01*
X855Y49D01*
X854Y49D01*
X853Y49D01*
X852Y49D01*
X851Y49D01*
X850Y49D01*
X849Y49D01*
X848Y50D01*
X847Y50D01*
X846Y50D01*
X845Y50D01*
X844Y50D01*
X843Y50D01*
X842Y51D01*
X841Y51D01*
X840Y51D01*
X839Y51D01*
X838Y51D01*
X837Y51D01*
X836Y51D01*
X835Y52D01*
X834Y52D01*
X833Y52D01*
X832Y52D01*
X831Y52D01*
X830Y52D01*
X829Y53D01*
X828Y53D01*
X827Y53D01*
X826Y53D01*
X825Y53D01*
X824Y53D01*
X823Y53D01*
X822Y54D01*
X821Y54D01*
X820Y54D01*
X819Y54D01*
X818Y54D01*
X817Y54D01*
X816Y55D01*
X815Y55D01*
X814Y55D01*
X813Y55D01*
X812Y55D01*
X811Y55D01*
X810Y56D01*
X809Y56D01*
X808Y56D01*
X807Y56D01*
X806Y56D01*
X805Y56D01*
X804Y57D01*
X803Y57D01*
X802Y57D01*
X801Y57D01*
X800Y57D01*
X799Y57D01*
X798Y58D01*
X797Y58D01*
X796Y58D01*
X795Y58D01*
X794Y58D01*
X793Y58D01*
X792Y59D01*
X791Y59D01*
X790Y59D01*
X789Y59D01*
X788Y59D01*
X787Y59D01*
X786Y60D01*
X785Y60D01*
X784Y60D01*
X783Y60D01*
X782Y60D01*
X781Y60D01*
X780Y61D01*
X779Y61D01*
X778Y61D01*
X777Y61D01*
X776Y61D01*
X775Y62D01*
X774Y62D01*
X773Y62D01*
X772Y62D01*
X771Y62D01*
X770Y62D01*
X769Y63D01*
X768Y63D01*
X767Y63D01*
X766Y63D01*
X765Y63D01*
X764Y63D01*
X763Y64D01*
X762Y64D01*
X761Y64D01*
X760Y64D01*
X759Y64D01*
X758Y65D01*
X757Y65D01*
X756Y65D01*
X755Y65D01*
X754Y65D01*
X753Y66D01*
X752Y66D01*
X751Y66D01*
X750Y66D01*
X749Y66D01*
X748Y66D01*
X747Y67D01*
X746Y67D01*
X745Y67D01*
X744Y67D01*
X743Y67D01*
X742Y68D01*
X741Y68D01*
X740Y68D01*
X739Y68D01*
X738Y68D01*
X737Y69D01*
X736Y69D01*
X735Y69D01*
X734Y69D01*
X733Y69D01*
X732Y69D01*
X731Y70D01*
X730Y70D01*
X729Y70D01*
X728Y70D01*
X727Y70D01*
X726Y71D01*
X725Y71D01*
X724Y71D01*
X723Y71D01*
X722Y71D01*
X721Y72D01*
X720Y72D01*
X719Y72D01*
X718Y72D01*
X717Y72D01*
X716Y73D01*
X715Y73D01*
X714Y73D01*
X713Y73D01*
X712Y73D01*
X711Y74D01*
X710Y74D01*
X709Y74D01*
X708Y74D01*
X707Y74D01*
X706Y75D01*
X705Y75D01*
X704Y75D01*
X703Y75D01*
X702Y75D01*
X701Y76D01*
X700Y76D01*
X699Y76D01*
X698Y76D01*
X697Y77D01*
X696Y77D01*
X695Y77D01*
X694Y77D01*
X693Y77D01*
X692Y78D01*
X691Y78D01*
X690Y78D01*
X689Y78D01*
X688Y78D01*
X687Y79D01*
X686Y79D01*
X685Y79D01*
X684Y79D01*
X683Y80D01*
X682Y80D01*
X681Y80D01*
X680Y80D01*
X679Y80D01*
X678Y81D01*
X677Y81D01*
X676Y81D01*
X675Y81D01*
X674Y81D01*
X673Y82D01*
X672Y82D01*
X671Y82D01*
X670Y82D01*
X669Y83D01*
X668Y83D01*
X667Y83D01*
X666Y83D01*
X665Y83D01*
X664Y84D01*
X663Y84D01*
X662Y84D01*
X661Y84D01*
X660Y85D01*
X659Y85D01*
X658Y85D01*
X657Y85D01*
X656Y85D01*
X655Y86D01*
X654Y86D01*
X653Y86D01*
X652Y86D01*
X651Y87D01*
X650Y87D01*
X649Y87D01*
X648Y87D01*
X647Y88D01*
X646Y88D01*
X645Y88D01*
X644Y88D01*
X643Y88D01*
X642Y89D01*
X641Y89D01*
X640Y89D01*
X639Y89D01*
X638Y90D01*
X637Y90D01*
X636Y90D01*
X635Y90D01*
X634Y91D01*
X633Y91D01*
X632Y91D01*
X631Y91D01*
X630Y92D01*
X629Y92D01*
X628Y92D01*
X627Y92D01*
X626Y93D01*
X625Y93D01*
X624Y93D01*
X623Y93D01*
X622Y93D01*
X621Y94D01*
X620Y94D01*
X619Y94D01*
X618Y94D01*
X617Y95D01*
X616Y95D01*
X615Y95D01*
X614Y95D01*
X613Y96D01*
X612Y96D01*
X611Y96D01*
X610Y96D01*
X609Y97D01*
X608Y97D01*
X607Y97D01*
X606Y97D01*
X605Y98D01*
X604Y98D01*
X603Y98D01*
X602Y98D01*
X601Y99D01*
X600Y99D01*
X599Y99D01*
X598Y99D01*
X597Y100D01*
X596Y100D01*
X595Y100D01*
X594Y100D01*
X593Y101D01*
X592Y101D01*
X591Y101D01*
X590Y102D01*
X589Y102D01*
X588Y102D01*
X587Y102D01*
X586Y103D01*
X585Y103D01*
X584Y103D01*
X583Y103D01*
X582Y104D01*
X581Y104D01*
X580Y104D01*
X579Y104D01*
X578Y105D01*
X577Y105D01*
X576Y105D01*
X575Y106D01*
X574Y106D01*
X573Y106D01*
X572Y106D01*
X571Y107D01*
X570Y107D01*
X569Y107D01*
X568Y107D01*
X567Y108D01*
X566Y108D01*
X565Y108D01*
X564Y108D01*
X563Y109D01*
X562Y109D01*
X561Y109D01*
X560Y110D01*
X559Y110D01*
X558Y110D01*
X557Y110D01*
X556Y111D01*
X555Y111D01*
X554Y111D01*
X553Y112D01*
X552Y112D01*
X551Y112D01*
X550Y112D01*
X549Y113D01*
X548Y113D01*
X547Y113D01*
X546Y114D01*
X545Y114D01*
X544Y114D01*
X543Y114D01*
X542Y115D01*
X541Y115D01*
X540Y115D01*
X539Y116D01*
X538Y116D01*
X537Y116D01*
X536Y116D01*
X535Y117D01*
X534Y117D01*
X533Y117D01*
X532Y118D01*
X531Y118D01*
X530Y118D01*
X529Y119D01*
X528Y119D01*
X527Y119D01*
X526Y119D01*
X525Y120D01*
X524Y120D01*
X523Y120D01*
X522Y121D01*
X521Y121D01*
X520Y121D01*
X519Y121D01*
X518Y122D01*
X517Y122D01*
X516Y122D01*
X515Y123D01*
X514Y123D01*
X513Y123D01*
X512Y124D01*
X511Y124D01*
X510Y124D01*
X509Y125D01*
X508Y125D01*
X507Y125D01*
X506Y125D01*
X505Y126D01*
X504Y126D01*
X503Y126D01*
X502Y127D01*
X501Y127D01*
X500Y127D01*
X499Y128D01*
X498Y128D01*
X497Y128D01*
X496Y129D01*
X495Y129D01*
X494Y129D01*
X493Y130D01*
X492Y130D01*
X491Y130D01*
X490Y131D01*
X489Y131D01*
X488Y131D01*
X487Y131D01*
X486Y132D01*
X485Y132D01*
X484Y132D01*
X483Y133D01*
X482Y133D01*
X481Y133D01*
X480Y134D01*
X479Y134D01*
X478Y134D01*
X477Y135D01*
X476Y135D01*
X475Y135D01*
X474Y136D01*
X473Y136D01*
X472Y136D01*
X471Y137D01*
X470Y137D01*
X469Y137D01*
X468Y138D01*
X467Y138D01*
X466Y138D01*
X465Y139D01*
X464Y139D01*
X463Y139D01*
X462Y140D01*
X461Y140D01*
X460Y140D01*
X459Y141D01*
X458Y141D01*
X457Y142D01*
X456Y142D01*
X455Y142D01*
X454Y143D01*
X453Y143D01*
X452Y143D01*
X451Y144D01*
X450Y144D01*
X449Y144D01*
X448Y145D01*
X447Y145D01*
X446Y145D01*
X445Y146D01*
X444Y146D01*
X443Y146D01*
X442Y147D01*
X441Y147D01*
X440Y147D01*
X439Y148D01*
X438Y148D01*
X437Y149D01*
X436Y149D01*
X435Y149D01*
X434Y150D01*
X433Y150D01*
X432Y150D01*
X431Y151D01*
X430Y151D01*
X429Y152D01*
X428Y152D01*
X427Y152D01*
X426Y153D01*
X425Y153D01*
X424Y154D01*
X423Y154D01*
X422Y154D01*
X421Y155D01*
X420Y155D01*
X419Y155D01*
X418Y156D01*
X417Y156D01*
X416Y157D01*
X415Y157D01*
X414Y157D01*
X413Y158D01*
X412Y158D01*
X411Y159D01*
X410Y159D01*
X409Y159D01*
X408Y160D01*
X407Y160D01*
X406Y161D01*
X405Y161D01*
X404Y161D01*
X403Y162D01*
X402Y162D01*
X401Y163D01*
X400Y163D01*
X399Y164D01*
X398Y164D01*
X397Y164D01*
X396Y165D01*
X395Y165D01*
X394Y166D01*
X393Y166D01*
X392Y166D01*
X391Y167D01*
X390Y167D01*
X389Y168D01*
X388Y168D01*
X387Y169D01*
X386Y169D01*
X385Y169D01*
X384Y170D01*
X383Y170D01*
X382Y171D01*
X381Y171D01*
X380Y172D01*
X379Y172D01*
X378Y173D01*
X377Y173D01*
X376Y173D01*
X375Y174D01*
X374Y174D01*
X373Y175D01*
X372Y175D01*
X371Y176D01*
X370Y176D01*
X369Y177D01*
X368Y177D01*
X367Y178D01*
X366Y178D01*
X365Y178D01*
X364Y179D01*
X363Y179D01*
X362Y180D01*
X361Y180D01*
X360Y181D01*
X359Y181D01*
X358Y182D01*
X357Y182D01*
X356Y183D01*
X355Y183D01*
X354Y184D01*
X353Y184D01*
X352Y185D01*
X351Y185D01*
X350Y186D01*
X349Y186D01*
X348Y187D01*
X347Y187D01*
X346Y188D01*
X345Y188D01*
X344Y189D01*
X343Y189D01*
X342Y189D01*
X341Y190D01*
X340Y191D01*
X339Y191D01*
X338Y192D01*
X337Y192D01*
X336Y193D01*
X335Y193D01*
X334Y194D01*
X333Y194D01*
X332Y195D01*
X331Y195D01*
X330Y196D01*
X329Y196D01*
X328Y197D01*
X327Y197D01*
X326Y198D01*
X325Y198D01*
X324Y199D01*
X323Y199D01*
X322Y200D01*
X321Y200D01*
X320Y201D01*
X319Y201D01*
X318Y202D01*
X317Y202D01*
X316Y203D01*
X315Y204D01*
X314Y204D01*
X313Y205D01*
X312Y205D01*
X311Y206D01*
X310Y206D01*
X309Y207D01*
X308Y207D01*
X307Y208D01*
X306Y208D01*
X305Y209D01*
X304Y210D01*
X303Y210D01*
X302Y211D01*
X301Y211D01*
X300Y212D01*
X299Y212D01*
X298Y213D01*
X297Y214D01*
X296Y214D01*
X295Y215D01*
X294Y215D01*
X293Y216D01*
X292Y216D01*
X291Y217D01*
X290Y218D01*
X289Y218D01*
X288Y219D01*
X287Y219D01*
X286Y220D01*
X285Y220D01*
X284Y221D01*
X283Y222D01*
X282Y222D01*
X281Y223D01*
X280Y223D01*
X279Y224D01*
X278Y225D01*
X277Y225D01*
X276Y226D01*
X275Y226D01*
X274Y227D01*
X273Y228D01*
X272Y228D01*
X271Y229D01*
X270Y230D01*
X269Y230D01*
X268Y231D01*
X267Y231D01*
X266Y232D01*
X265Y233D01*
X264Y233D01*
X263Y234D01*
X262Y235D01*
X261Y235D01*
X260Y236D01*
X259Y236D01*
X258Y237D01*
X257Y238D01*
X256Y238D01*
X255Y239D01*
X254Y240D01*
X253Y240D01*
X252Y241D01*
X251Y242D01*
X250Y242D01*
X249Y243D01*
X248Y244D01*
X247Y244D01*
X246Y245D01*
X245Y246D01*
X244Y246D01*
X243Y247D01*
X242Y248D01*
X241Y248D01*
X240Y249D01*
X239Y250D01*
X238Y250D01*
X237Y251D01*
X236Y252D01*
X235Y252D01*
X234Y253D01*
X233Y254D01*
X232Y254D01*
X231Y255D01*
X230Y256D01*
X229Y256D01*
X228Y257D01*
X227Y258D01*
X226Y259D01*
X225Y259D01*
X224Y260D01*
X223Y261D01*
X222Y261D01*
X221Y262D01*
X220Y263D01*
X219Y263D01*
X218Y264D01*
X217Y265D01*
X216Y266D01*
X215Y266D01*
X214Y267D01*
X213Y268D01*
X212Y269D01*
X211Y269D01*
X210Y270D01*
X209Y271D01*
X208Y272D01*
X207Y272D01*
X206Y273D01*
X205Y274D01*
X204Y275D01*
X203Y275D01*
X202Y276D01*
X201Y277D01*
X200Y278D01*
X199Y278D01*
X198Y279D01*
X197Y280D01*
X196Y281D01*
X195Y281D01*
X194Y282D01*
X193Y283D01*
X192Y284D01*
X191Y285D01*
X190Y285D01*
X189Y286D01*
X188Y287D01*
X187Y288D01*
X186Y289D01*
X185Y289D01*
X184Y290D01*
X183Y291D01*
X182Y292D01*
X181Y293D01*
X180Y293D01*
X179Y294D01*
X178Y295D01*
X177Y296D01*
X176Y297D01*
X175Y298D01*
X174Y298D01*
X173Y299D01*
X172Y300D01*
X171Y301D01*
X170Y302D01*
X169Y303D01*
X168Y303D01*
X167Y304D01*
X166Y305D01*
X165Y306D01*
X164Y307D01*
X163Y308D01*
X162Y309D01*
X161Y310D01*
X160Y310D01*
X159Y311D01*
X158Y312D01*
X157Y313D01*
X156Y314D01*
X155Y315D01*
X154Y316D01*
X153Y317D01*
X152Y317D01*
X151Y318D01*
X150Y319D01*
X149Y320D01*
X148Y321D01*
X147Y322D01*
X146Y323D01*
X145Y324D01*
X144Y325D01*
X143Y326D01*
X142Y327D01*
X141Y328D01*
X140Y329D01*
X139Y330D01*
X138Y330D01*
X137Y331D01*
X136Y332D01*
X135Y333D01*
X134Y334D01*
X133Y335D01*
X132Y336D01*
X131Y337D01*
X130Y338D01*
X129Y339D01*
X128Y340D01*
X127Y341D01*
X126Y342D01*
X125Y343D01*
X124Y344D01*
X123Y345D01*
X122Y346D01*
X121Y347D01*
X120Y348D01*
X119Y349D01*
X118Y350D01*
X118Y351D01*
X117Y352D01*
X116Y353D01*
X115Y354D01*
X114Y355D01*
X113Y356D01*
X112Y357D01*
X111Y358D01*
X110Y359D01*
X109Y360D01*
X108Y361D01*
X107Y362D01*
X106Y363D01*
X105Y364D01*
X105Y365D01*
X104Y366D01*
X103Y367D01*
X102Y368D01*
X101Y369D01*
X100Y370D01*
X99Y371D01*
X98Y372D01*
X97Y373D01*
X97Y374D01*
X96Y375D01*
X95Y376D01*
X94Y377D01*
X93Y378D01*
X92Y379D01*
X92Y380D01*
X91Y381D01*
X90Y382D01*
X89Y383D01*
X88Y384D01*
X87Y385D01*
X87Y386D01*
X86Y387D01*
X85Y388D01*
X84Y389D01*
X83Y390D01*
X83Y391D01*
X82Y392D01*
X81Y393D01*
X80Y394D01*
X79Y395D01*
X79Y396D01*
X78Y397D01*
X77Y398D01*
X76Y399D01*
X76Y400D01*
X75Y401D01*
X74Y402D01*
X73Y403D01*
X73Y404D01*
X72Y405D01*
X71Y406D01*
X70Y407D01*
X70Y408D01*
X69Y409D01*
X68Y410D01*
X68Y411D01*
X67Y412D01*
X66Y413D01*
X65Y414D01*
X65Y415D01*
X64Y416D01*
X63Y417D01*
X63Y418D01*
X62Y419D01*
X61Y420D01*
X61Y421D01*
X60Y422D01*
X59Y423D01*
X59Y424D01*
X58Y425D01*
X57Y426D01*
X57Y427D01*
X56Y428D01*
X55Y429D01*
X55Y430D01*
X54Y431D01*
X54Y432D01*
X53Y433D01*
X52Y434D01*
X52Y435D01*
X51Y436D01*
X51Y437D01*
X50Y438D01*
X49Y439D01*
X49Y440D01*
X48Y441D01*
X48Y442D01*
X47Y443D01*
X46Y444D01*
X46Y445D01*
X45Y446D01*
X45Y447D01*
X44Y448D01*
X44Y449D01*
X43Y450D01*
X43Y451D01*
X42Y452D01*
X42Y453D01*
X41Y454D01*
X40Y455D01*
X40Y456D01*
X39Y457D01*
X39Y458D01*
X38Y459D01*
X38Y460D01*
X37Y461D01*
X37Y462D01*
X36Y463D01*
X36Y464D01*
X35Y465D01*
X35Y466D01*
X34Y467D01*
X34Y469D01*
X33Y470D01*
X33Y471D01*
X32Y472D01*
X32Y473D01*
X31Y474D01*
X31Y475D01*
X30Y476D01*
X30Y478D01*
X29Y479D01*
X29Y480D01*
X28Y481D01*
X28Y483D01*
X27Y484D01*
X27Y485D01*
X26Y486D01*
X26Y488D01*
X25Y489D01*
X25Y491D01*
X24Y492D01*
X24Y494D01*
X23Y495D01*
X23Y496D01*
X22Y497D01*
X22Y499D01*
X21Y500D01*
X21Y503D01*
X20Y504D01*
X20Y507D01*
X19Y508D01*
X19Y510D01*
X18Y511D01*
X18Y514D01*
X17Y515D01*
X17Y519D01*
X16Y520D01*
X16Y524D01*
X15Y525D01*
X15Y531D01*
X14Y532D01*
X14Y542D01*
X13Y543D01*
X13Y1859D01*
X12Y1860D01*
X12Y3056D01*
X11Y3057D01*
X11Y3888D01*
X12Y3889D01*
X12Y4619D01*
X13Y4620D01*
X13Y4950D01*
X14Y4951D01*
X14Y4972D01*
X15Y4973D01*
X15Y4984D01*
X16Y4985D01*
X16Y4993D01*
X17Y4994D01*
X17Y5001D01*
X18Y5002D01*
X18Y5008D01*
X19Y5009D01*
X19Y5014D01*
X20Y5015D01*
X20Y5020D01*
X21Y5021D01*
X21Y5025D01*
X22Y5026D01*
X22Y5030D01*
X23Y5031D01*
X23Y5035D01*
X24Y5036D01*
X24Y5040D01*
X25Y5041D01*
X25Y5044D01*
X26Y5045D01*
X26Y5048D01*
X27Y5049D01*
X27Y5052D01*
X28Y5053D01*
X28Y5056D01*
X29Y5057D01*
X29Y5060D01*
X30Y5061D01*
X30Y5063D01*
X31Y5064D01*
X31Y5067D01*
X32Y5068D01*
X32Y5070D01*
X33Y5071D01*
X33Y5074D01*
X34Y5075D01*
X34Y5077D01*
X35Y5078D01*
X35Y5080D01*
X36Y5081D01*
X36Y5083D01*
X37Y5084D01*
X37Y5086D01*
X38Y5087D01*
X38Y5089D01*
X39Y5090D01*
X39Y5092D01*
X40Y5093D01*
X40Y5095D01*
X41Y5096D01*
X41Y5098D01*
X42Y5099D01*
X42Y5100D01*
X43Y5101D01*
X43Y5103D01*
X44Y5104D01*
X44Y5106D01*
X45Y5107D01*
X45Y5108D01*
X46Y5109D01*
X46Y5111D01*
X47Y5112D01*
X47Y5113D01*
X48Y5114D01*
X48Y5116D01*
X49Y5117D01*
X49Y5118D01*
X50Y5119D01*
X50Y5121D01*
X51Y5122D01*
X51Y5123D01*
X52Y5124D01*
X52Y5125D01*
X53Y5126D01*
X53Y5128D01*
X54Y5129D01*
X54Y5130D01*
X55Y5131D01*
X55Y5132D01*
X56Y5133D01*
X56Y5134D01*
X57Y5135D01*
X57Y5137D01*
X58Y5138D01*
X58Y5139D01*
X59Y5140D01*
X59Y5141D01*
X60Y5142D01*
X60Y5143D01*
X61Y5144D01*
X61Y5145D01*
X62Y5146D01*
X62Y5147D01*
X63Y5148D01*
X63Y5149D01*
X64Y5150D01*
X64Y5151D01*
X65Y5152D01*
X65Y5153D01*
X66Y5154D01*
X66Y5155D01*
X67Y5156D01*
X67Y5157D01*
X68Y5158D01*
X68Y5159D01*
X69Y5160D01*
X69Y5161D01*
X70Y5162D01*
X70Y5163D01*
X71Y5164D01*
X71Y5165D01*
X72Y5166D01*
X72Y5167D01*
X73Y5168D01*
X73Y5169D01*
X74Y5170D01*
X74Y5171D01*
X75Y5172D01*
X76Y5173D01*
X76Y5174D01*
X77Y5175D01*
X77Y5176D01*
X78Y5177D01*
X78Y5178D01*
X79Y5179D01*
X79Y5180D01*
X80Y5181D01*
X81Y5182D01*
X81Y5183D01*
X82Y5184D01*
X82Y5185D01*
X83Y5186D01*
X83Y5187D01*
X84Y5188D01*
X85Y5189D01*
X85Y5190D01*
X86Y5191D01*
X86Y5192D01*
X87Y5193D01*
X88Y5194D01*
X88Y5195D01*
X89Y5196D01*
X89Y5197D01*
X90Y5198D01*
X91Y5199D01*
X91Y5200D01*
X92Y5201D01*
X93Y5202D01*
X93Y5203D01*
X94Y5204D01*
X94Y5205D01*
X95Y5206D01*
X96Y5207D01*
X96Y5208D01*
X97Y5209D01*
X97Y5210D01*
X98Y5211D01*
X99Y5212D01*
X99Y5213D01*
X100Y5214D01*
X101Y5215D01*
X101Y5216D01*
X102Y5217D01*
X103Y5218D01*
X103Y5219D01*
X104Y5220D01*
X105Y5221D01*
X105Y5222D01*
X106Y5223D01*
X107Y5224D01*
X107Y5225D01*
X108Y5226D01*
X109Y5227D01*
X109Y5228D01*
X110Y5229D01*
X111Y5230D01*
X111Y5231D01*
X112Y5232D01*
X113Y5233D01*
X113Y5234D01*
X114Y5235D01*
X115Y5236D01*
X115Y5237D01*
X116Y5238D01*
X117Y5239D01*
X117Y5240D01*
X118Y5241D01*
X119Y5242D01*
X120Y5243D01*
X120Y5244D01*
X121Y5245D01*
X122Y5246D01*
X123Y5247D01*
X123Y5248D01*
X124Y5249D01*
X125Y5250D01*
X125Y5251D01*
X126Y5252D01*
X127Y5253D01*
X128Y5254D01*
X128Y5255D01*
X129Y5256D01*
X130Y5257D01*
X131Y5258D01*
X131Y5259D01*
X132Y5260D01*
X133Y5261D01*
X134Y5262D01*
X134Y5263D01*
X135Y5264D01*
X136Y5265D01*
X137Y5266D01*
X137Y5267D01*
X138Y5268D01*
X139Y5269D01*
X140Y5270D01*
X140Y5271D01*
X141Y5272D01*
X142Y5273D01*
X143Y5274D01*
X144Y5275D01*
X144Y5276D01*
X145Y5277D01*
X146Y5278D01*
X147Y5279D01*
X147Y5280D01*
X148Y5281D01*
X149Y5282D01*
X150Y5283D01*
X151Y5284D01*
X151Y5285D01*
X152Y5286D01*
X153Y5287D01*
X154Y5288D01*
X155Y5289D01*
X156Y5290D01*
X156Y5291D01*
X157Y5292D01*
X158Y5293D01*
X159Y5294D01*
X160Y5295D01*
X160Y5296D01*
X161Y5297D01*
X162Y5298D01*
X163Y5299D01*
X164Y5300D01*
X164Y5301D01*
X165Y5302D01*
X166Y5303D01*
X167Y5304D01*
X168Y5305D01*
X169Y5306D01*
X170Y5307D01*
X170Y5308D01*
X171Y5309D01*
X172Y5310D01*
X173Y5311D01*
X174Y5312D01*
X175Y5313D01*
X176Y5314D01*
X176Y5315D01*
X177Y5316D01*
X178Y5317D01*
X179Y5318D01*
X180Y5319D01*
X181Y5320D01*
X182Y5321D01*
X182Y5322D01*
X183Y5323D01*
X184Y5324D01*
X185Y5325D01*
X186Y5326D01*
X187Y5327D01*
X188Y5328D01*
X189Y5329D01*
X190Y5330D01*
X190Y5331D01*
X191Y5332D01*
X192Y5333D01*
X193Y5334D01*
X194Y5335D01*
X195Y5336D01*
X196Y5337D01*
X197Y5338D01*
X198Y5339D01*
X198Y5340D01*
X199Y5341D01*
X200Y5342D01*
X201Y5343D01*
X202Y5344D01*
X203Y5345D01*
X204Y5346D01*
X205Y5347D01*
X206Y5348D01*
X207Y5349D01*
X208Y5350D01*
X209Y5351D01*
X209Y5352D01*
X210Y5353D01*
X211Y5354D01*
X212Y5355D01*
X213Y5356D01*
X214Y5357D01*
X215Y5358D01*
X216Y5359D01*
X217Y5360D01*
X218Y5361D01*
X219Y5362D01*
X220Y5363D01*
X221Y5364D01*
X222Y5365D01*
X223Y5366D01*
X224Y5367D01*
X224Y5368D01*
X225Y5369D01*
X226Y5370D01*
X227Y5371D01*
X228Y5372D01*
X229Y5373D01*
X230Y5374D01*
X231Y5375D01*
X232Y5376D01*
X233Y5377D01*
X234Y5378D01*
X235Y5379D01*
X236Y5380D01*
X237Y5381D01*
X238Y5382D01*
X239Y5383D01*
X240Y5384D01*
X241Y5385D01*
X242Y5386D01*
X243Y5387D01*
X244Y5388D01*
X245Y5389D01*
X246Y5390D01*
X247Y5391D01*
X248Y5392D01*
X249Y5393D01*
X250Y5394D01*
X251Y5395D01*
X252Y5396D01*
X253Y5397D01*
X254Y5398D01*
X255Y5399D01*
X256Y5400D01*
X257Y5401D01*
X257Y5402D01*
X258Y5403D01*
X259Y5404D01*
X260Y5405D01*
X261Y5406D01*
X262Y5406D01*
X263Y5407D01*
X264Y5408D01*
X265Y5409D01*
X266Y5410D01*
X267Y5411D01*
X268Y5412D01*
X269Y5413D01*
X270Y5414D01*
X271Y5415D01*
X272Y5416D01*
X273Y5417D01*
X274Y5418D01*
X275Y5419D01*
X276Y5420D01*
X277Y5421D01*
X278Y5422D01*
X279Y5423D01*
X280Y5424D01*
X281Y5425D01*
X282Y5426D01*
X283Y5427D01*
X284Y5428D01*
X285Y5429D01*
X286Y5430D01*
X287Y5431D01*
X288Y5432D01*
X289Y5433D01*
X290Y5434D01*
X291Y5435D01*
X292Y5436D01*
X293Y5437D01*
X294Y5438D01*
X295Y5439D01*
X296Y5440D01*
X297Y5441D01*
X298Y5442D01*
X299Y5443D01*
X300Y5444D01*
X301Y5445D01*
X302Y5446D01*
X303Y5447D01*
X304Y5448D01*
X305Y5449D01*
X306Y5450D01*
X307Y5451D01*
X308Y5452D01*
X309Y5453D01*
X310Y5454D01*
X311Y5455D01*
X312Y5456D01*
X313Y5457D01*
X314Y5458D01*
X315Y5459D01*
X316Y5460D01*
X317Y5460D01*
X318Y5461D01*
X319Y5462D01*
X320Y5463D01*
X321Y5464D01*
X322Y5465D01*
X323Y5466D01*
X324Y5467D01*
X325Y5468D01*
X326Y5469D01*
X327Y5470D01*
X328Y5471D01*
X329Y5472D01*
X330Y5473D01*
X331Y5474D01*
X332Y5475D01*
X333Y5476D01*
X334Y5477D01*
X335Y5478D01*
X336Y5479D01*
X337Y5480D01*
X338Y5481D01*
X339Y5482D01*
X340Y5483D01*
X341Y5484D01*
X342Y5485D01*
X343Y5486D01*
X344Y5487D01*
X345Y5488D01*
X346Y5489D01*
X347Y5489D01*
X348Y5490D01*
X349Y5491D01*
X350Y5492D01*
X351Y5493D01*
X352Y5494D01*
X353Y5495D01*
X354Y5496D01*
X355Y5497D01*
X356Y5498D01*
X357Y5499D01*
X358Y5500D01*
X359Y5501D01*
X360Y5502D01*
X361Y5503D01*
X362Y5504D01*
X363Y5505D01*
X364Y5506D01*
X365Y5507D01*
X366Y5508D01*
X367Y5509D01*
X368Y5510D01*
X369Y5511D01*
X370Y5512D01*
X371Y5513D01*
X372Y5514D01*
X373Y5515D01*
X374Y5516D01*
X375Y5517D01*
X376Y5517D01*
X377Y5518D01*
X378Y5519D01*
X379Y5520D01*
X380Y5521D01*
X381Y5522D01*
X382Y5523D01*
X383Y5524D01*
X384Y5525D01*
X385Y5526D01*
X386Y5527D01*
X387Y5528D01*
X388Y5529D01*
X389Y5530D01*
X390Y5531D01*
X391Y5532D01*
X392Y5533D01*
X393Y5534D01*
X394Y5535D01*
X395Y5536D01*
X396Y5537D01*
X397Y5538D01*
X398Y5539D01*
X399Y5540D01*
X400Y5541D01*
X401Y5542D01*
X402Y5543D01*
X403Y5544D01*
X404Y5545D01*
X405Y5546D01*
X406Y5547D01*
X407Y5548D01*
X408Y5549D01*
X409Y5550D01*
X410Y5551D01*
X411Y5552D01*
X412Y5553D01*
X413Y5554D01*
X414Y5555D01*
X415Y5556D01*
X416Y5557D01*
X417Y5558D01*
X418Y5559D01*
X419Y5560D01*
X420Y5561D01*
X421Y5562D01*
X422Y5563D01*
X423Y5564D01*
X424Y5565D01*
X425Y5566D01*
X426Y5567D01*
X427Y5568D01*
X428Y5569D01*
X429Y5570D01*
X430Y5571D01*
X431Y5572D01*
X432Y5573D01*
X433Y5574D01*
X434Y5575D01*
X435Y5576D01*
X436Y5577D01*
X437Y5578D01*
X438Y5579D01*
X439Y5580D01*
X440Y5581D01*
X441Y5582D01*
X442Y5583D01*
X443Y5584D01*
X444Y5585D01*
X445Y5586D01*
X446Y5587D01*
X447Y5588D01*
X448Y5589D01*
X449Y5590D01*
X450Y5591D01*
X451Y5592D01*
X452Y5593D01*
X453Y5594D01*
X454Y5595D01*
X454Y5596D01*
X455Y5597D01*
X456Y5598D01*
X457Y5599D01*
X458Y5600D01*
X459Y5601D01*
X460Y5602D01*
X461Y5603D01*
X462Y5604D01*
X463Y5605D01*
X464Y5606D01*
X465Y5607D01*
X466Y5608D01*
X467Y5609D01*
X468Y5610D01*
X469Y5611D01*
X470Y5612D01*
X470Y5613D01*
X471Y5614D01*
X472Y5615D01*
X473Y5616D01*
X474Y5617D01*
X475Y5618D01*
X476Y5619D01*
X477Y5620D01*
X478Y5621D01*
X479Y5622D01*
X480Y5623D01*
X481Y5624D01*
X481Y5625D01*
X482Y5626D01*
X483Y5627D01*
X484Y5628D01*
X485Y5629D01*
X486Y5630D01*
X487Y5631D01*
X488Y5632D01*
X489Y5633D01*
X490Y5634D01*
X491Y5635D01*
X491Y5636D01*
X492Y5637D01*
X493Y5638D01*
X494Y5639D01*
X494Y5640D01*
X495Y5641D01*
X496Y5642D01*
X496Y5643D01*
X497Y5644D01*
X497Y5645D01*
X498Y5646D01*
X499Y5647D01*
X499Y5648D01*
X500Y5649D01*
X500Y5650D01*
X501Y5651D01*
X502Y5652D01*
X502Y5653D01*
X503Y5654D01*
X503Y5655D01*
X504Y5656D01*
X505Y5657D01*
X505Y5658D01*
X506Y5659D01*
X506Y5660D01*
X507Y5661D01*
X507Y5662D01*
X508Y5663D01*
X509Y5664D01*
X509Y5665D01*
X510Y5666D01*
X510Y5667D01*
X511Y5668D01*
X511Y5669D01*
X512Y5670D01*
X513Y5671D01*
X513Y5672D01*
X514Y5673D01*
X514Y5674D01*
X515Y5675D01*
X515Y5676D01*
X516Y5677D01*
X516Y5678D01*
X517Y5679D01*
X517Y5680D01*
X518Y5681D01*
X519Y5682D01*
X519Y5683D01*
X520Y5684D01*
X520Y5685D01*
X521Y5686D01*
X521Y5687D01*
X522Y5688D01*
X522Y5689D01*
X523Y5690D01*
X523Y5691D01*
X524Y5692D01*
X524Y5693D01*
X525Y5694D01*
X525Y5695D01*
X526Y5696D01*
X526Y5697D01*
X527Y5698D01*
X527Y5699D01*
X528Y5700D01*
X528Y5701D01*
X529Y5702D01*
X529Y5703D01*
X530Y5704D01*
X530Y5705D01*
X531Y5706D01*
X531Y5707D01*
X532Y5708D01*
X532Y5709D01*
X533Y5710D01*
X533Y5711D01*
X534Y5712D01*
X534Y5713D01*
X535Y5714D01*
X535Y5715D01*
X536Y5716D01*
X536Y5717D01*
X537Y5718D01*
X537Y5719D01*
X538Y5720D01*
X538Y5721D01*
X539Y5722D01*
X539Y5723D01*
X540Y5724D01*
X540Y5726D01*
X541Y5727D01*
X541Y5728D01*
X542Y5729D01*
X542Y5730D01*
X543Y5731D01*
X543Y5732D01*
X544Y5733D01*
X544Y5734D01*
X545Y5735D01*
X545Y5737D01*
X546Y5738D01*
X546Y5739D01*
X547Y5740D01*
X547Y5741D01*
X548Y5742D01*
X548Y5743D01*
X549Y5744D01*
X549Y5746D01*
X550Y5747D01*
X550Y5748D01*
X551Y5749D01*
X551Y5750D01*
X552Y5751D01*
X552Y5753D01*
X553Y5754D01*
X553Y5755D01*
X554Y5756D01*
X554Y5758D01*
X555Y5759D01*
X555Y5760D01*
X556Y5761D01*
X556Y5762D01*
X557Y5763D01*
X557Y5765D01*
X558Y5766D01*
X558Y5767D01*
X559Y5768D01*
X559Y5770D01*
X560Y5771D01*
X560Y5772D01*
X561Y5773D01*
X561Y5775D01*
X562Y5776D01*
X562Y5778D01*
X563Y5779D01*
X563Y5780D01*
X564Y5781D01*
X564Y5783D01*
X565Y5784D01*
X565Y5785D01*
X566Y5786D01*
X566Y5788D01*
X567Y5789D01*
X567Y5791D01*
X568Y5792D01*
X568Y5794D01*
X569Y5795D01*
X569Y5796D01*
X570Y5797D01*
X570Y5799D01*
X571Y5800D01*
X571Y5802D01*
X572Y5803D01*
X572Y5805D01*
X573Y5806D01*
X573Y5808D01*
X574Y5809D01*
X574Y5811D01*
X575Y5812D01*
X575Y5814D01*
X576Y5815D01*
X576Y5817D01*
X577Y5818D01*
X577Y5820D01*
X578Y5821D01*
X578Y5823D01*
X579Y5824D01*
X579Y5826D01*
X580Y5827D01*
X580Y5829D01*
X581Y5830D01*
X581Y5832D01*
X582Y5833D01*
X582Y5835D01*
X583Y5836D01*
X583Y5838D01*
X584Y5839D01*
X584Y5842D01*
X585Y5843D01*
X585Y5845D01*
X586Y5846D01*
X586Y5848D01*
X587Y5849D01*
X587Y5852D01*
X588Y5853D01*
X588Y5855D01*
X589Y5856D01*
X589Y5859D01*
X590Y5860D01*
X590Y5862D01*
X591Y5863D01*
X591Y5866D01*
X592Y5867D01*
X592Y5869D01*
X593Y5870D01*
X593Y5873D01*
X594Y5874D01*
X594Y5877D01*
X595Y5878D01*
X595Y5881D01*
X596Y5882D01*
X596Y5885D01*
X597Y5886D01*
X597Y5889D01*
X598Y5890D01*
X598Y5893D01*
X599Y5894D01*
X599Y5897D01*
X600Y5898D01*
X600Y5901D01*
X601Y5902D01*
X601Y5905D01*
X602Y5906D01*
X602Y5909D01*
X603Y5910D01*
X603Y5914D01*
X604Y5915D01*
X604Y5918D01*
X605Y5919D01*
X605Y5923D01*
X606Y5924D01*
X606Y5927D01*
X607Y5928D01*
X607Y5932D01*
X608Y5933D01*
X608Y5937D01*
X609Y5938D01*
X609Y5942D01*
X610Y5943D01*
X610Y5947D01*
X611Y5948D01*
X611Y5952D01*
X612Y5953D01*
X612Y5957D01*
X613Y5958D01*
X613Y5963D01*
X614Y5964D01*
X614Y5968D01*
X615Y5969D01*
X615Y5974D01*
X616Y5975D01*
X616Y5980D01*
X617Y5981D01*
X617Y5986D01*
X618Y5987D01*
X618Y5992D01*
X619Y5993D01*
X619Y5998D01*
X620Y5999D01*
X620Y6005D01*
X621Y6006D01*
X621Y6011D01*
X622Y6012D01*
X622Y6018D01*
X623Y6019D01*
X623Y6026D01*
X624Y6027D01*
X624Y6033D01*
X625Y6034D01*
X625Y6041D01*
X626Y6042D01*
X626Y6049D01*
X627Y6050D01*
X627Y6058D01*
X628Y6059D01*
X628Y6067D01*
X629Y6068D01*
X629Y6076D01*
X630Y6077D01*
X630Y6086D01*
X631Y6087D01*
X631Y6097D01*
X632Y6098D01*
X632Y6108D01*
X633Y6109D01*
X633Y6120D01*
X634Y6121D01*
X634Y6132D01*
X635Y6133D01*
X635Y6147D01*
X636Y6148D01*
X636Y6162D01*
X637Y6163D01*
X637Y6179D01*
X638Y6180D01*
X638Y6198D01*
X639Y6199D01*
X639Y6221D01*
X640Y6222D01*
X640Y6246D01*
X641Y6247D01*
X641Y6282D01*
X642Y6283D01*
X642Y6331D01*
X643Y6332D01*
X643Y6547D01*
X644Y6548D01*
X644Y6702D01*
X645Y6703D01*
X645Y6758D01*
X646Y6759D01*
X646Y6800D01*
X647Y6801D01*
X647Y6832D01*
X648Y6833D01*
X648Y6861D01*
X649Y6862D01*
X649Y6885D01*
X650Y6886D01*
X650Y6909D01*
X651Y6910D01*
X651Y6928D01*
X652Y6929D01*
X652Y6947D01*
X653Y6948D01*
X653Y6966D01*
X654Y6967D01*
X654Y6983D01*
X655Y6984D01*
X655Y6999D01*
X656Y7000D01*
X656Y7016D01*
X657Y7017D01*
X657Y7033D01*
X658Y7034D01*
X658Y7050D01*
X659Y7051D01*
X659Y7065D01*
X660Y7066D01*
X660Y7081D01*
X661Y7082D01*
X661Y7096D01*
X662Y7097D01*
X662Y7111D01*
X663Y7112D01*
X663Y7126D01*
X664Y7127D01*
X664Y7141D01*
X665Y7142D01*
X665Y7156D01*
X666Y7157D01*
X666Y7170D01*
X667Y7171D01*
X667Y7184D01*
X668Y7185D01*
X668Y7198D01*
X669Y7199D01*
X669Y7212D01*
X670Y7213D01*
X670Y7226D01*
X671Y7227D01*
X671Y7240D01*
X672Y7241D01*
X672Y7253D01*
X673Y7254D01*
X673Y7266D01*
X674Y7267D01*
X674Y7279D01*
X675Y7280D01*
X675Y7292D01*
X676Y7293D01*
X676Y7305D01*
X677Y7306D01*
X677Y7318D01*
X678Y7319D01*
X678Y7331D01*
X679Y7332D01*
X679Y7343D01*
X680Y7344D01*
X680Y7356D01*
X681Y7357D01*
X681Y7368D01*
X682Y7369D01*
X682Y7380D01*
X683Y7381D01*
X683Y7392D01*
X684Y7393D01*
X684Y7404D01*
X685Y7405D01*
X685Y7417D01*
X686Y7418D01*
X686Y7429D01*
X687Y7430D01*
X687Y7441D01*
X688Y7442D01*
X688Y7452D01*
X689Y7453D01*
X689Y7464D01*
X690Y7465D01*
X690Y7475D01*
X691Y7476D01*
X691Y7487D01*
X692Y7488D01*
X692Y7498D01*
X693Y7499D01*
X693Y7510D01*
X694Y7511D01*
X694Y7522D01*
X695Y7523D01*
X695Y7533D01*
X696Y7534D01*
X696Y7544D01*
X697Y7545D01*
X697Y7555D01*
X698Y7556D01*
X698Y7566D01*
X699Y7567D01*
X699Y7577D01*
X700Y7578D01*
X700Y7588D01*
X701Y7589D01*
X701Y7599D01*
X702Y7600D01*
X702Y7610D01*
X703Y7611D01*
X703Y7621D01*
X704Y7622D01*
X704Y7631D01*
X705Y7632D01*
X705Y7642D01*
X706Y7643D01*
X706Y7652D01*
X707Y7653D01*
X707Y7663D01*
X708Y7664D01*
X708Y7674D01*
X709Y7675D01*
X709Y7684D01*
X710Y7685D01*
X710Y7695D01*
X711Y7696D01*
X711Y7705D01*
X712Y7706D01*
X712Y7716D01*
X713Y7717D01*
X713Y7726D01*
X714Y7727D01*
X714Y7736D01*
X715Y7737D01*
X715Y7746D01*
X716Y7747D01*
X716Y7756D01*
X717Y7757D01*
X717Y7766D01*
X718Y7767D01*
X718Y7777D01*
X719Y7778D01*
X719Y7787D01*
X720Y7788D01*
X720Y7797D01*
X721Y7798D01*
X721Y7807D01*
X722Y7808D01*
X722Y7816D01*
X723Y7817D01*
X723Y7826D01*
X724Y7827D01*
X724Y7836D01*
X725Y7837D01*
X725Y7846D01*
X726Y7847D01*
X726Y7856D01*
X727Y7857D01*
X727Y7865D01*
X728Y7866D01*
X728Y7875D01*
X729Y7876D01*
X729Y7885D01*
X730Y7886D01*
X730Y7895D01*
X731Y7896D01*
X731Y7904D01*
X732Y7905D01*
X732Y7914D01*
X733Y7915D01*
X733Y7923D01*
X734Y7924D01*
X734Y7933D01*
X735Y7934D01*
X735Y7942D01*
X736Y7943D01*
X736Y7952D01*
X737Y7953D01*
X737Y7961D01*
X738Y7962D01*
X738Y7971D01*
X739Y7972D01*
X739Y7980D01*
X740Y7981D01*
X740Y7989D01*
X741Y7990D01*
X741Y7998D01*
X742Y7999D01*
X742Y8007D01*
X743Y8008D01*
X743Y8017D01*
X744Y8018D01*
X744Y8026D01*
X745Y8027D01*
X745Y8035D01*
X746Y8036D01*
X746Y8044D01*
X747Y8045D01*
X747Y8053D01*
X748Y8054D01*
X748Y8062D01*
X749Y8063D01*
X749Y8071D01*
X750Y8072D01*
X750Y8080D01*
X751Y8081D01*
X751Y8089D01*
X752Y8090D01*
X752Y8098D01*
X753Y8099D01*
X753Y8107D01*
X754Y8108D01*
X754Y8116D01*
X755Y8117D01*
X755Y8125D01*
X756Y8126D01*
X756Y8134D01*
X757Y8135D01*
X757Y8143D01*
X758Y8144D01*
X758Y8152D01*
X759Y8153D01*
X759Y8160D01*
X760Y8161D01*
X760Y8169D01*
X761Y8170D01*
X761Y8178D01*
X762Y8179D01*
X762Y8186D01*
X763Y8187D01*
X763Y8195D01*
X764Y8196D01*
X764Y8204D01*
X765Y8205D01*
X765Y8213D01*
X766Y8214D01*
X766Y8221D01*
X767Y8222D01*
X767Y8229D01*
X768Y8230D01*
X768Y8238D01*
X769Y8239D01*
X769Y8246D01*
X770Y8247D01*
X770Y8255D01*
X771Y8256D01*
X771Y8263D01*
X772Y8264D01*
X772Y8271D01*
X773Y8272D01*
X773Y8280D01*
X774Y8281D01*
X774Y8288D01*
X775Y8289D01*
X775Y8297D01*
X776Y8298D01*
X776Y8305D01*
X777Y8306D01*
X777Y8313D01*
X778Y8314D01*
X778Y8322D01*
X779Y8323D01*
X779Y8330D01*
X780Y8331D01*
X780Y8339D01*
X781Y8340D01*
X781Y8347D01*
X782Y8348D01*
X782Y8355D01*
X783Y8356D01*
X783Y8363D01*
X784Y8364D01*
X784Y8370D01*
X785Y8371D01*
X785Y8378D01*
X786Y8379D01*
X786Y8385D01*
X787Y8386D01*
X787Y8393D01*
X788Y8394D01*
X788Y8400D01*
X789Y8401D01*
X789Y8409D01*
X790Y8410D01*
X790Y8422D01*
X791Y8423D01*
X791Y8432D01*
X790Y8433D01*
X790Y8440D01*
X789Y8441D01*
X789Y8444D01*
X788Y8445D01*
X788Y8446D01*
X787Y8447D01*
X787Y8449D01*
X786Y8450D01*
X786Y8451D01*
X785Y8452D01*
X784Y8453D01*
X784Y8454D01*
X783Y8455D01*
X782Y8456D01*
X781Y8457D01*
X781Y8458D01*
X780Y8459D01*
X779Y8460D01*
X778Y8461D01*
X777Y8462D01*
X776Y8463D01*
X775Y8464D01*
X774Y8464D01*
X773Y8465D01*
X772Y8466D01*
X771Y8467D01*
X770Y8468D01*
X769Y8468D01*
X768Y8469D01*
X767Y8470D01*
X766Y8471D01*
X765Y8471D01*
X764Y8472D01*
X763Y8473D01*
X762Y8474D01*
X761Y8475D01*
X760Y8476D01*
X759Y8477D01*
X758Y8478D01*
X757Y8479D01*
X756Y8480D01*
X755Y8481D01*
X755Y8482D01*
X754Y8483D01*
X753Y8484D01*
X752Y8485D01*
X752Y8486D01*
X751Y8487D01*
X751Y8488D01*
X750Y8489D01*
X749Y8490D01*
X749Y8491D01*
X748Y8492D01*
X748Y8493D01*
X747Y8494D01*
X746Y8495D01*
X746Y8496D01*
X745Y8497D01*
X745Y8498D01*
X744Y8499D01*
X744Y8500D01*
X743Y8501D01*
X743Y8503D01*
X742Y8504D01*
X742Y8505D01*
X741Y8506D01*
X741Y8507D01*
X740Y8508D01*
X740Y8510D01*
X739Y8511D01*
X739Y8512D01*
X738Y8513D01*
X738Y8515D01*
X737Y8516D01*
X737Y8518D01*
X736Y8519D01*
X736Y8521D01*
X735Y8522D01*
X735Y8524D01*
X734Y8525D01*
X734Y8527D01*
X733Y8528D01*
X733Y8531D01*
X732Y8532D01*
X732Y8535D01*
X731Y8536D01*
X731Y8538D01*
X730Y8539D01*
X730Y8543D01*
X729Y8544D01*
X729Y8547D01*
X728Y8548D01*
X728Y8552D01*
X727Y8553D01*
X727Y8557D01*
X726Y8558D01*
X726Y8562D01*
X725Y8563D01*
X725Y8568D01*
X724Y8569D01*
X724Y8574D01*
X723Y8575D01*
X723Y8581D01*
X722Y8582D01*
X722Y8590D01*
X721Y8591D01*
X721Y8599D01*
X720Y8600D01*
X720Y8611D01*
X719Y8612D01*
X719Y8630D01*
X718Y8631D01*
X718Y8674D01*
X719Y8675D01*
X719Y8693D01*
X720Y8694D01*
X720Y8706D01*
X721Y8707D01*
X721Y8716D01*
X722Y8717D01*
X722Y8725D01*
X723Y8726D01*
X723Y8732D01*
X724Y8733D01*
X724Y8739D01*
X725Y8740D01*
X725Y8745D01*
X726Y8746D01*
X726Y8751D01*
X727Y8752D01*
X727Y8756D01*
X728Y8757D01*
X728Y8761D01*
X729Y8762D01*
X729Y8766D01*
X730Y8767D01*
X730Y8771D01*
X731Y8772D01*
X731Y8775D01*
X732Y8776D01*
X732Y8779D01*
X733Y8780D01*
X733Y8783D01*
X734Y8784D01*
X734Y8787D01*
X735Y8788D01*
X735Y8791D01*
X736Y8792D01*
X736Y8794D01*
X737Y8795D01*
X737Y8797D01*
X738Y8798D01*
X738Y8801D01*
X739Y8802D01*
X739Y8804D01*
X740Y8805D01*
X740Y8807D01*
X741Y8808D01*
X741Y8810D01*
X742Y8811D01*
X742Y8813D01*
X743Y8814D01*
X743Y8816D01*
X744Y8817D01*
X744Y8818D01*
X745Y8819D01*
X745Y8821D01*
X746Y8822D01*
X746Y8823D01*
X747Y8824D01*
X747Y8826D01*
X748Y8827D01*
X748Y8828D01*
X749Y8829D01*
X749Y8830D01*
X750Y8831D01*
X750Y8833D01*
X751Y8834D01*
X751Y8835D01*
X752Y8836D01*
X752Y8837D01*
X753Y8838D01*
X752Y8839D01*
X751Y8839D01*
X750Y8839D01*
X749Y8839D01*
X748Y8839D01*
X747Y8839D01*
X746Y8839D01*
X745Y8839D01*
X744Y8838D01*
X743Y8838D01*
X742Y8838D01*
X741Y8838D01*
X740Y8838D01*
X739Y8838D01*
X738Y8838D01*
X737Y8838D01*
X736Y8838D01*
X735Y8838D01*
X734Y8838D01*
X733Y8838D01*
X732Y8839D01*
X731Y8839D01*
X730Y8839D01*
X729Y8839D01*
X728Y8839D01*
X727Y8839D01*
X726Y8839D01*
X725Y8840D01*
X724Y8840D01*
X723Y8840D01*
X722Y8840D01*
X721Y8840D01*
X720Y8841D01*
X719Y8841D01*
X718Y8842D01*
X717Y8842D01*
X716Y8842D01*
X715Y8843D01*
X714Y8843D01*
X713Y8843D01*
X712Y8844D01*
X711Y8845D01*
X710Y8845D01*
X709Y8846D01*
X708Y8847D01*
X707Y8847D01*
X706Y8848D01*
X705Y8849D01*
X704Y8850D01*
X703Y8851D01*
X702Y8852D01*
X701Y8853D01*
X700Y8854D01*
X699Y8855D01*
X699Y8856D01*
X698Y8857D01*
X698Y8858D01*
X697Y8859D01*
X697Y8860D01*
X696Y8861D01*
X696Y8862D01*
X695Y8863D01*
X695Y8865D01*
X694Y8866D01*
X694Y8868D01*
X693Y8869D01*
X693Y8871D01*
X692Y8872D01*
X692Y8893D01*
X693Y8894D01*
X693Y8901D01*
X694Y8902D01*
X694Y8907D01*
X695Y8908D01*
X695Y8913D01*
X696Y8914D01*
X696Y8919D01*
X697Y8920D01*
X697Y8924D01*
X698Y8925D01*
X698Y8928D01*
X699Y8929D01*
X699Y8932D01*
X700Y8933D01*
X700Y8936D01*
X701Y8937D01*
X701Y8939D01*
X702Y8940D01*
X702Y8943D01*
X703Y8944D01*
X703Y8946D01*
X704Y8947D01*
X704Y8949D01*
X705Y8950D01*
X705Y8952D01*
X706Y8953D01*
X706Y8956D01*
X707Y8957D01*
X707Y8959D01*
X708Y8960D01*
X708Y8963D01*
X709Y8964D01*
X709Y8966D01*
X710Y8967D01*
X710Y8970D01*
X711Y8971D01*
X711Y8973D01*
X712Y8974D01*
X712Y8976D01*
X713Y8977D01*
X713Y8980D01*
X714Y8981D01*
X714Y8983D01*
X715Y8984D01*
X715Y8987D01*
X716Y8988D01*
X716Y8991D01*
X717Y8992D01*
X717Y8995D01*
X718Y8996D01*
X718Y8999D01*
X719Y9000D01*
X719Y9003D01*
X720Y9004D01*
X720Y9008D01*
X721Y9009D01*
X721Y9012D01*
X722Y9013D01*
X722Y9018D01*
X723Y9019D01*
X723Y9024D01*
X724Y9025D01*
X724Y9032D01*
X725Y9033D01*
X725Y9036D01*
X726Y9037D01*
X726Y9041D01*
X727Y9042D01*
X727Y9046D01*
X728Y9047D01*
X728Y9050D01*
X729Y9051D01*
X729Y9055D01*
X730Y9056D01*
X730Y9059D01*
X731Y9060D01*
X731Y9064D01*
X732Y9065D01*
X732Y9067D01*
X733Y9068D01*
X733Y9071D01*
X734Y9072D01*
X734Y9075D01*
X735Y9076D01*
X735Y9078D01*
X736Y9079D01*
X736Y9082D01*
X737Y9083D01*
X737Y9085D01*
X738Y9086D01*
X738Y9088D01*
X739Y9089D01*
X739Y9090D01*
X740Y9091D01*
X740Y9093D01*
X741Y9094D01*
X741Y9096D01*
X742Y9097D01*
X742Y9099D01*
X743Y9100D01*
X743Y9101D01*
X744Y9102D01*
X744Y9104D01*
X745Y9105D01*
X745Y9107D01*
X746Y9108D01*
X746Y9109D01*
X747Y9110D01*
X747Y9111D01*
X748Y9112D01*
X748Y9114D01*
X749Y9115D01*
X750Y9116D01*
X750Y9117D01*
X751Y9118D01*
X751Y9119D01*
X752Y9120D01*
X752Y9121D01*
X753Y9122D01*
X754Y9123D01*
X754Y9124D01*
X755Y9125D01*
X756Y9126D01*
X756Y9127D01*
X757Y9128D01*
X758Y9129D01*
X758Y9130D01*
X759Y9131D01*
X760Y9132D01*
X761Y9133D01*
X762Y9134D01*
X763Y9135D01*
X763Y9136D01*
X764Y9137D01*
X765Y9138D01*
X766Y9139D01*
X767Y9140D01*
X768Y9141D01*
X769Y9142D01*
X770Y9143D01*
X771Y9144D01*
X772Y9144D01*
X773Y9145D01*
X774Y9146D01*
X775Y9147D01*
X776Y9148D01*
X777Y9149D01*
X778Y9149D01*
X779Y9150D01*
X780Y9151D01*
X781Y9152D01*
X782Y9152D01*
X783Y9153D01*
X784Y9154D01*
X785Y9154D01*
X786Y9155D01*
X787Y9155D01*
X788Y9156D01*
X789Y9156D01*
X790Y9157D01*
X791Y9158D01*
X792Y9158D01*
X793Y9159D01*
X794Y9159D01*
X795Y9160D01*
X796Y9160D01*
X797Y9161D01*
X798Y9161D01*
X799Y9162D01*
X800Y9162D01*
X801Y9163D01*
X802Y9163D01*
X803Y9164D01*
X804Y9164D01*
X805Y9165D01*
X806Y9165D01*
X807Y9165D01*
X808Y9166D01*
X809Y9166D01*
X810Y9167D01*
X811Y9167D01*
X812Y9168D01*
X813Y9168D01*
X814Y9168D01*
X815Y9169D01*
X816Y9169D01*
X817Y9170D01*
X818Y9170D01*
X819Y9170D01*
X820Y9171D01*
X821Y9171D01*
X822Y9171D01*
X823Y9172D01*
X824Y9172D01*
X825Y9172D01*
X826Y9173D01*
X827Y9173D01*
X828Y9174D01*
X829Y9174D01*
X830Y9174D01*
X831Y9175D01*
X832Y9175D01*
X833Y9175D01*
X834Y9175D01*
X835Y9176D01*
X836Y9176D01*
X837Y9176D01*
X838Y9177D01*
X839Y9177D01*
X840Y9177D01*
X841Y9178D01*
X842Y9178D01*
X843Y9178D01*
X844Y9178D01*
X845Y9179D01*
X846Y9179D01*
X847Y9179D01*
X848Y9179D01*
X849Y9179D01*
X850Y9180D01*
X851Y9180D01*
X852Y9180D01*
X853Y9180D01*
X854Y9181D01*
X855Y9181D01*
X856Y9181D01*
X857Y9181D01*
X858Y9181D01*
X859Y9182D01*
X860Y9182D01*
X861Y9182D01*
X862Y9182D01*
X863Y9182D01*
X864Y9183D01*
X865Y9183D01*
X866Y9183D01*
X867Y9183D01*
X868Y9183D01*
X869Y9183D01*
X870Y9184D01*
X871Y9184D01*
X872Y9184D01*
X873Y9184D01*
X874Y9184D01*
X875Y9184D01*
X876Y9184D01*
X877Y9185D01*
X878Y9185D01*
X879Y9185D01*
X880Y9185D01*
X881Y9185D01*
X882Y9185D01*
X883Y9185D01*
X884Y9186D01*
X885Y9186D01*
X886Y9186D01*
X887Y9186D01*
X888Y9186D01*
X889Y9186D01*
X890Y9186D01*
X891Y9186D01*
X892Y9186D01*
X893Y9187D01*
X894Y9187D01*
X895Y9187D01*
X896Y9187D01*
X897Y9187D01*
X898Y9187D01*
X899Y9187D01*
X900Y9187D01*
X901Y9187D01*
X902Y9188D01*
X903Y9188D01*
X904Y9188D01*
X905Y9188D01*
X906Y9188D01*
X907Y9188D01*
X908Y9188D01*
X909Y9188D01*
X910Y9188D01*
X911Y9189D01*
X912Y9189D01*
X913Y9189D01*
X914Y9189D01*
X915Y9189D01*
X916Y9189D01*
X917Y9189D01*
X918Y9189D01*
X919Y9189D01*
X920Y9189D01*
X921Y9190D01*
X922Y9190D01*
X923Y9190D01*
X924Y9190D01*
X925Y9190D01*
X926Y9190D01*
X927Y9190D01*
X928Y9190D01*
X929Y9190D01*
X930Y9190D01*
X931Y9191D01*
X932Y9191D01*
X933Y9191D01*
X934Y9191D01*
X935Y9191D01*
X936Y9191D01*
X937Y9191D01*
X938Y9191D01*
X939Y9191D01*
X940Y9192D01*
X941Y9192D01*
X942Y9192D01*
X943Y9192D01*
X944Y9192D01*
X945Y9192D01*
X946Y9192D01*
X947Y9192D01*
X948Y9192D01*
X949Y9193D01*
X950Y9193D01*
X951Y9193D01*
X952Y9193D01*
X953Y9193D01*
X954Y9193D01*
X955Y9193D01*
X956Y9193D01*
X957Y9193D01*
X958Y9193D01*
X959Y9194D01*
X960Y9194D01*
X961Y9194D01*
X962Y9194D01*
X963Y9194D01*
X964Y9194D01*
X965Y9194D01*
X966Y9194D01*
X967Y9195D01*
X968Y9195D01*
X969Y9195D01*
X970Y9195D01*
X971Y9195D01*
X972Y9195D01*
X973Y9195D01*
X974Y9196D01*
X975Y9196D01*
X976Y9196D01*
X977Y9196D01*
X978Y9196D01*
X979Y9196D01*
X980Y9196D01*
X981Y9197D01*
X982Y9197D01*
X983Y9197D01*
X984Y9197D01*
X985Y9197D01*
X986Y9197D01*
X987Y9197D01*
X988Y9198D01*
X989Y9198D01*
X990Y9198D01*
X991Y9198D01*
X992Y9198D01*
X993Y9198D01*
X994Y9199D01*
X995Y9199D01*
X996Y9199D01*
X997Y9199D01*
X998Y9199D01*
X999Y9199D01*
X1000Y9200D01*
X1001Y9200D01*
X1002Y9200D01*
X1003Y9200D01*
X1004Y9200D01*
X1005Y9200D01*
X1006Y9200D01*
X1007Y9201D01*
X1008Y9201D01*
X1009Y9201D01*
X1010Y9201D01*
X1011Y9201D01*
X1012Y9201D01*
X1013Y9202D01*
X1014Y9202D01*
X1015Y9202D01*
X1016Y9202D01*
X1017Y9202D01*
X1018Y9202D01*
X1019Y9203D01*
X1020Y9203D01*
X1021Y9203D01*
X1022Y9203D01*
X1023Y9203D01*
X1024Y9203D01*
X1025Y9203D01*
X1026Y9204D01*
X1027Y9204D01*
X1028Y9204D01*
X1029Y9204D01*
X1030Y9204D01*
X1031Y9204D01*
X1032Y9204D01*
X1033Y9205D01*
X1034Y9205D01*
X1035Y9205D01*
X1036Y9205D01*
X1037Y9205D01*
X1038Y9205D01*
X1039Y9206D01*
X1040Y9206D01*
X1041Y9206D01*
X1042Y9206D01*
X1043Y9206D01*
X1044Y9206D01*
X1045Y9206D01*
X1046Y9207D01*
X1047Y9207D01*
X1048Y9207D01*
X1049Y9207D01*
X1050Y9207D01*
X1051Y9207D01*
X1052Y9207D01*
X1053Y9208D01*
X1054Y9208D01*
X1055Y9208D01*
X1056Y9208D01*
X1057Y9208D01*
X1058Y9208D01*
X1059Y9208D01*
X1060Y9209D01*
X1061Y9209D01*
X1062Y9209D01*
X1063Y9209D01*
X1064Y9209D01*
X1065Y9209D01*
X1066Y9209D01*
X1067Y9210D01*
X1068Y9210D01*
X1069Y9210D01*
X1070Y9210D01*
X1071Y9210D01*
X1072Y9210D01*
X1073Y9210D01*
X1074Y9210D01*
X1075Y9211D01*
X1076Y9211D01*
X1077Y9211D01*
X1078Y9211D01*
X1079Y9211D01*
X1080Y9211D01*
X1081Y9211D01*
X1082Y9212D01*
X1083Y9212D01*
X1084Y9212D01*
X1085Y9212D01*
X1086Y9212D01*
X1087Y9212D01*
X1088Y9212D01*
X1089Y9212D01*
X1090Y9213D01*
X1091Y9213D01*
X1092Y9213D01*
X1093Y9213D01*
X1094Y9213D01*
X1095Y9213D01*
X1096Y9213D01*
X1097Y9214D01*
X1098Y9214D01*
X1099Y9214D01*
X1100Y9214D01*
X1101Y9214D01*
X1102Y9214D01*
X1103Y9214D01*
X1104Y9214D01*
X1105Y9214D01*
X1106Y9215D01*
X1107Y9215D01*
X1108Y9215D01*
X1109Y9215D01*
X1110Y9215D01*
X1111Y9215D01*
X1112Y9215D01*
X1113Y9215D01*
X1114Y9216D01*
X1115Y9216D01*
X1116Y9216D01*
X1117Y9216D01*
X1118Y9216D01*
X1119Y9216D01*
X1120Y9216D01*
X1121Y9216D01*
X1122Y9217D01*
X1123Y9217D01*
X1124Y9217D01*
X1125Y9217D01*
X1126Y9217D01*
X1127Y9217D01*
X1128Y9217D01*
X1129Y9217D01*
X1130Y9218D01*
X1131Y9218D01*
X1132Y9218D01*
X1133Y9218D01*
X1134Y9218D01*
X1135Y9218D01*
X1136Y9218D01*
X1137Y9218D01*
X1138Y9218D01*
X1139Y9218D01*
X1140Y9219D01*
X1141Y9219D01*
X1142Y9219D01*
X1143Y9219D01*
X1144Y9219D01*
X1145Y9219D01*
X1146Y9219D01*
X1147Y9219D01*
X1148Y9219D01*
X1149Y9220D01*
X1150Y9220D01*
X1151Y9220D01*
X1152Y9220D01*
X1153Y9220D01*
X1154Y9220D01*
X1155Y9220D01*
X1156Y9220D01*
X1157Y9220D01*
X1158Y9220D01*
X1159Y9221D01*
X1160Y9221D01*
X1161Y9221D01*
X1162Y9221D01*
X1163Y9221D01*
X1164Y9221D01*
X1165Y9221D01*
X1166Y9221D01*
X1167Y9221D01*
X1168Y9221D01*
X1169Y9222D01*
X1170Y9222D01*
X1171Y9222D01*
X1172Y9222D01*
X1173Y9222D01*
X1174Y9222D01*
X1175Y9222D01*
X1176Y9222D01*
X1177Y9222D01*
X1178Y9222D01*
X1179Y9222D01*
X1180Y9222D01*
X1181Y9223D01*
X1182Y9223D01*
X1183Y9223D01*
X1184Y9223D01*
X1185Y9223D01*
X1186Y9223D01*
X1187Y9223D01*
X1188Y9223D01*
X1189Y9223D01*
X1190Y9223D01*
X1191Y9223D01*
X1192Y9223D01*
X1193Y9224D01*
X1194Y9224D01*
X1195Y9224D01*
X1196Y9224D01*
X1197Y9224D01*
X1198Y9224D01*
X1199Y9224D01*
X1200Y9224D01*
X1201Y9224D01*
X1202Y9224D01*
X1203Y9224D01*
X1204Y9224D01*
X1205Y9224D01*
X1206Y9225D01*
X1207Y9225D01*
X1208Y9225D01*
X1209Y9225D01*
X1210Y9225D01*
X1211Y9225D01*
X1212Y9225D01*
X1213Y9225D01*
X1214Y9225D01*
X1215Y9225D01*
X1216Y9225D01*
X1217Y9225D01*
X1218Y9225D01*
X1219Y9225D01*
X1220Y9225D01*
X1221Y9226D01*
X1222Y9226D01*
X1223Y9226D01*
X1224Y9226D01*
X1225Y9226D01*
X1226Y9226D01*
X1227Y9226D01*
X1228Y9226D01*
X1229Y9226D01*
X1230Y9226D01*
X1231Y9226D01*
X1232Y9226D01*
X1233Y9226D01*
X1234Y9226D01*
X1235Y9227D01*
X1236Y9227D01*
X1237Y9227D01*
X1238Y9227D01*
X1239Y9227D01*
X1240Y9227D01*
X1241Y9227D01*
X1242Y9227D01*
X1243Y9227D01*
X1244Y9227D01*
X1245Y9227D01*
X1246Y9227D01*
X1247Y9227D01*
X1248Y9227D01*
X1249Y9227D01*
X1250Y9227D01*
X1251Y9227D01*
X1252Y9227D01*
X1253Y9227D01*
X1254Y9228D01*
X1255Y9228D01*
X1256Y9228D01*
X1257Y9228D01*
X1258Y9228D01*
X1259Y9228D01*
X1260Y9228D01*
X1261Y9228D01*
X1262Y9228D01*
X1263Y9228D01*
X1264Y9228D01*
X1265Y9228D01*
X1266Y9228D01*
X1267Y9228D01*
X1268Y9228D01*
X1269Y9228D01*
X1270Y9228D01*
X1271Y9228D01*
X1272Y9228D01*
X1273Y9228D01*
X1274Y9229D01*
X1275Y9229D01*
X1276Y9229D01*
X1277Y9229D01*
X1278Y9229D01*
X1279Y9229D01*
X1280Y9229D01*
X1281Y9229D01*
X1282Y9229D01*
X1283Y9229D01*
X1284Y9229D01*
X1285Y9229D01*
X1286Y9229D01*
X1287Y9229D01*
X1288Y9229D01*
X1289Y9229D01*
X1290Y9229D01*
X1291Y9229D01*
X1292Y9229D01*
X1293Y9229D01*
X1294Y9229D01*
X1295Y9229D01*
X1296Y9229D01*
X1297Y9229D01*
X1298Y9229D01*
X1299Y9229D01*
X1300Y9229D01*
X1301Y9229D01*
X1302Y9229D01*
X1303Y9230D01*
X1304Y9230D01*
X1305Y9230D01*
X1306Y9230D01*
X1307Y9230D01*
X1308Y9230D01*
X1309Y9230D01*
X1310Y9230D01*
X1311Y9230D01*
X1312Y9230D01*
X1313Y9230D01*
X1314Y9230D01*
X1315Y9230D01*
X1316Y9230D01*
X1317Y9230D01*
X1318Y9230D01*
X1319Y9230D01*
X1320Y9230D01*
X1321Y9230D01*
X1322Y9230D01*
X1323Y9230D01*
X1324Y9230D01*
X1325Y9230D01*
X1326Y9230D01*
X1327Y9230D01*
X1328Y9230D01*
X1329Y9230D01*
X1330Y9230D01*
X1331Y9230D01*
X1332Y9230D01*
X1333Y9230D01*
X1334Y9230D01*
X1335Y9231D01*
X1336Y9231D01*
X1337Y9231D01*
X1338Y9231D01*
X1339Y9231D01*
X1340Y9231D01*
X1341Y9231D01*
X1342Y9231D01*
X1343Y9231D01*
X1344Y9231D01*
X1345Y9231D01*
X1346Y9231D01*
X1347Y9231D01*
X1348Y9231D01*
X1349Y9231D01*
X1350Y9231D01*
X1351Y9231D01*
X1352Y9231D01*
X1353Y9231D01*
X1354Y9231D01*
X1355Y9231D01*
X1356Y9231D01*
X1357Y9231D01*
X1358Y9231D01*
X1359Y9231D01*
X1360Y9231D01*
X1361Y9231D01*
X1362Y9231D01*
X1363Y9231D01*
X1364Y9231D01*
X1365Y9231D01*
X1366Y9231D01*
X1367Y9231D01*
X1368Y9231D01*
X1369Y9232D01*
X1370Y9232D01*
X1371Y9232D01*
X1372Y9232D01*
X1373Y9232D01*
X1374Y9232D01*
X1375Y9232D01*
X1376Y9232D01*
X1377Y9232D01*
X1378Y9232D01*
X1379Y9232D01*
X1380Y9232D01*
X1381Y9232D01*
X1382Y9232D01*
X1383Y9232D01*
X1384Y9232D01*
X1385Y9232D01*
X1386Y9232D01*
X1387Y9232D01*
X1388Y9232D01*
X1389Y9232D01*
X1390Y9232D01*
X1391Y9232D01*
X1392Y9232D01*
X1393Y9232D01*
X1394Y9232D01*
X1395Y9232D01*
X1396Y9232D01*
X1397Y9232D01*
X1398Y9232D01*
X1399Y9232D01*
X1400Y9232D01*
X1401Y9232D01*
X1402Y9232D01*
X1403Y9232D01*
X1404Y9232D01*
X1405Y9232D01*
X1406Y9232D01*
X1407Y9232D01*
X1408Y9232D01*
X1409Y9232D01*
X1410Y9232D01*
X1411Y9232D01*
X1412Y9232D01*
X1413Y9232D01*
X1414Y9232D01*
X1415Y9232D01*
X1416Y9232D01*
X1417Y9233D01*
D02*
X1732Y8879D02*
X1073Y8879D01*
X1073Y9012D01*
X1731Y9012D01*
X1732Y8879D01*
D02*
G04 End of contour*
M02*