G04 MADE WITH FRITZING*
G04 WWW.FRITZING.ORG*
G04 DOUBLE SIDED*
G04 HOLES PLATED*
G04 CONTOUR ON CENTER OF CONTOUR VECTOR*
%ASAXBY*%
%FSLAX23Y23*%
%MOIN*%
%OFA0B0*%
%SFA1.0B1.0*%
%ADD10C,0.078000*%
%ADD11C,0.070000*%
%ADD12C,0.065000*%
%ADD13C,0.075000*%
%ADD14R,0.069972X0.070000*%
%ADD15R,0.078000X0.078000*%
%LNCOPPER1*%
G90*
G70*
G54D10*
X1903Y1569D03*
X1903Y1469D03*
X1903Y1369D03*
X1903Y1269D03*
X1903Y1169D03*
X1903Y1569D03*
X1903Y1469D03*
X1903Y1369D03*
X1903Y1269D03*
X1903Y1169D03*
X923Y1769D03*
X923Y1669D03*
X923Y1569D03*
X923Y1469D03*
X923Y1769D03*
X923Y1669D03*
X923Y1569D03*
X923Y1469D03*
X1903Y669D03*
X1903Y569D03*
X1903Y469D03*
X1903Y369D03*
X1903Y669D03*
X1903Y569D03*
X1903Y469D03*
X1903Y369D03*
G54D11*
X1103Y1769D03*
X1103Y1669D03*
X1103Y1569D03*
X1103Y1469D03*
X1103Y1369D03*
X1103Y1269D03*
X1103Y1169D03*
X1103Y1069D03*
X1103Y969D03*
X1103Y869D03*
X1103Y769D03*
X1103Y669D03*
X1103Y569D03*
X1103Y469D03*
X1103Y369D03*
X1703Y1769D03*
X1703Y1669D03*
X1703Y1569D03*
X1703Y1469D03*
X1703Y1369D03*
X1703Y1269D03*
X1703Y1169D03*
X1703Y1069D03*
X1703Y969D03*
X1703Y869D03*
X1703Y769D03*
X1703Y669D03*
X1703Y569D03*
X1703Y469D03*
X1703Y369D03*
G54D12*
X1103Y2550D03*
X1103Y2629D03*
X1103Y2707D03*
X1103Y2786D03*
X1863Y3130D03*
X1863Y3209D03*
X1863Y3287D03*
X1863Y3366D03*
X1403Y3510D03*
X1403Y3589D03*
X1403Y3667D03*
X1403Y3746D03*
X903Y3130D03*
X903Y3209D03*
X903Y3287D03*
X903Y3366D03*
X1683Y2550D03*
X1683Y2629D03*
X1683Y2707D03*
X1683Y2786D03*
G54D10*
X2063Y1769D03*
X1963Y1769D03*
G54D13*
X723Y469D03*
X923Y469D03*
X723Y469D03*
X923Y469D03*
X723Y369D03*
X923Y369D03*
X723Y369D03*
X923Y369D03*
X2103Y769D03*
X1903Y769D03*
X2103Y769D03*
X1903Y769D03*
X723Y569D03*
X923Y569D03*
X723Y569D03*
X923Y569D03*
X723Y669D03*
X923Y669D03*
X723Y669D03*
X923Y669D03*
X723Y769D03*
X923Y769D03*
X723Y769D03*
X923Y769D03*
X723Y869D03*
X923Y869D03*
X723Y869D03*
X923Y869D03*
X723Y969D03*
X923Y969D03*
X723Y969D03*
X923Y969D03*
X723Y1069D03*
X923Y1069D03*
X723Y1069D03*
X923Y1069D03*
X2103Y869D03*
X1903Y869D03*
X2103Y869D03*
X1903Y869D03*
X2103Y969D03*
X1903Y969D03*
X2103Y969D03*
X1903Y969D03*
X2103Y1069D03*
X1903Y1069D03*
X2103Y1069D03*
X1903Y1069D03*
X723Y1369D03*
X923Y1369D03*
X723Y1369D03*
X923Y1369D03*
X723Y1269D03*
X923Y1269D03*
X723Y1269D03*
X923Y1269D03*
X723Y1169D03*
X923Y1169D03*
X723Y1169D03*
X923Y1169D03*
G54D14*
X1103Y1769D03*
G54D15*
X2063Y1769D03*
G04 End of Copper1*
M02*